<?xml version="1.0" encoding="UTF-8"?>
<svg id="b" data-name="Layer 2" xmlns="http://www.w3.org/2000/svg" width="185.19" height="171.288" viewBox="0 0 185.19 171.288">
  <g id="c" data-name="Layer 2">
    <path d="M185.19,34.943l-.618,101.633c-.048,5.206-3.545,9.813-8.499,11.242,0,0-78.531,22.987-78.55,22.996-.522.154-1.053.27-1.584.348-.58.087-1.149.125-1.729.125-.666,0-1.323-.058-1.97-.164-.386-.068-.917-.174-1.545-.367l-78.376-22.938c-4.926-1.429-8.422-6.036-8.47-11.203l-.618-101.285v-.367c0-.618.048-1.236.145-1.855.039-.203.068-.406.116-.608.01-.039.019-.077.029-.116.058-.261.125-.521.203-.782.029-.087.058-.174.096-.261.203-.647.444-1.285.763-1.884.058-.096.106-.193.164-.29.116-.193.232-.396.357-.589.28-.435.579-.85.917-1.236.647-.773,1.381-1.449,2.212-2.018.666-.473,1.381-.879,2.144-1.188.27-.116.531-.222.811-.319.164-.058.338-.106.512-.164L91.003.473c1.082-.309,2.192-.473,3.313-.473,1.15,0,2.279.164,3.371.493l78.849,23.103c.27.077.541.164.811.261.232.087.464.174.686.27.772.319,1.507.724,2.173,1.217.995.695,1.864,1.526,2.588,2.501.299.386.512.724.666.966.077.125.164.28.241.415.357.638.638,1.275.86,1.932.01.039.019.077.038.116.058.193.116.386.164.57.164.57.241,1.024.28,1.294.096.599.145,1.207.145,1.806Z" fill="#fff2e3"/>
    <g>
      <g>
        <g>
          <path d="M51.29,89.689l-3.6-1.07v-16.1l3.6,1.07c8.22,2.44,9.27,6.94,9.27,10.58,0,2.81-.6,4.65-1.84,5.63-.89.69-2.89,1.24-7.43-.11Z" fill="#5695d2"/>
          <path d="M61.98,109.789c.95,1.77,1.41,3.74,1.41,6.02,0,2.55-.48,4.4-1.48,5.66-.99,1.25-2.24,1.83-3.81,1.77-1.84-.06-4.85-.71-8.94-1.94l-1.47-.44v-19.18l3.15.94c3.25.97,5.76,2.01,7.48,3.09,1.51.96,2.71,2.29,3.66,4.08Z" fill="#5695d2"/>
          <path d="M14.41,36.099l.62,100.57,76.98,22.52.12-100.38L14.41,36.099ZM73.47,130.099c-1.42,2.74-3.34,4.65-5.71,5.69-2.29.99-4.82,1.38-7.52,1.15-2.59-.21-6.14-.99-10.55-2.32l-21.19-6.35v-13.15l7.02,2.1v-48.31l-7.02-2.08v-13.15l20.78,6.15c5.42,1.61,9.4,3.19,12.18,4.83,3,1.78,5.66,4.82,7.9,9.02,2.23,4.19,3.37,8.72,3.37,13.45,0,3.63-.68,6.77-2.01,9.32-.8,1.54-1.83,2.76-3.08,3.66,2.07,2.09,3.78,4.54,5.09,7.32,1.91,4.05,2.87,8.35,2.87,12.79,0,3.83-.72,7.16-2.13,9.88Z" fill="#5695d2"/>
          <path d="M14.41,36.099l77.49,22.71.11,100.38.12-100.38L14.41,36.099Z" fill="#5695d2"/>
        </g>
        <g>
          <path d="M148.96,75.839c1.03,1.31,1.55,3.29,1.55,5.86,0,4.02-.93,7.06-2.75,9.05-1.38,1.5-4.51,3.72-11.56,5.77l-3.44,1v-20.49l3.88-1.17c4.14-1.24,7.08-1.88,8.76-1.9,1.4-.01,2.57.6,3.56,1.88Z" fill="#fed1ff"/>
          <path d="M96.52,58.809l-.11,100.38,76.98-22.52.61-100.57-77.48,22.71ZM161.53,89.839c-1.61,3.84-3.64,6.96-6.06,9.31-2.34,2.26-5,4.1-7.91,5.48-2.8,1.32-6.87,2.74-12.44,4.34l-2.36.67v12.93l8.06-2.26v12.45l-29.16,7.95v-12.28l7.83-2.17v-45.27l-7.83,2.33v-12.28l24.18-7.36c6.77-2.07,11.75-3.09,15.21-3.1,3.69-.01,6.8,1.59,9.24,4.76,2.4,3.12,3.62,7.34,3.62,12.54,0,4.14-.8,8.17-2.38,11.96Z" fill="#fed1ff"/>
        </g>
        <g>
          <polygon points="168.41 33.159 108.76 50.649 94.32 54.879 20.02 33.159 94.32 11.449 168.41 33.159" fill="#d37d57"/>
          <path d="M10,33.159c0,.04,0,.09.01.13v-.12c0-.17.02-.34.06-.51-.05.16-.07.33-.07.5Z"/>
          <path d="M178.38,32.819c-.01-.07-.02-.14-.05-.21-.01-.06-.03-.13-.05-.19-.04-.12-.1-.24-.16-.35-.05-.08-.09-.15-.15-.22-.14-.2-.32-.37-.53-.5-.08-.07-.17-.12-.27-.16h-.01c-.1-.05-.2-.09-.31-.13h-.01L94.94,7.059c-.4-.12-.83-.12-1.24,0L11.58,31.059q-.01,0-.02.01c-.1.03-.2.07-.3.12h-.01c-.1.04-.19.09-.27.16-.18.11-.34.25-.46.41-.06.06-.11.13-.15.2-.05.07-.09.14-.13.21-.08.15-.14.32-.17.49-.04.17-.06.34-.06.51v.12l.64,105.03c.01.97.65,1.83,1.58,2.1l81.29,23.79c.11.04.22.06.34.08.11.02.23.03.35.03s.23-.01.35-.03c.09-.01.18-.03.27-.06l.07-.02,81.29-23.79c.93-.27,1.57-1.13,1.58-2.1l.64-105.15v-.02c0-.11-.01-.22-.03-.33ZM92.01,159.189l-76.98-22.52-.62-100.57,77.72,22.71-.12,100.38ZM94.32,54.879L20.02,33.159,94.32,11.449l74.09,21.71-59.65,17.49-14.44,4.23ZM173.39,136.669l-76.98,22.52.11-100.38,77.48-22.71-.61,100.57Z"/>
          <path d="M.16,31.249c-.1.64-.15,1.28-.15,1.92v.38c-.01-.13-.01-.26-.01-.39,0-.65.05-1.29.16-1.91Z"/>
          <path d="M10.47,26.919c-.47.19-.92.43-1.35.7.43-.28.88-.51,1.35-.7Z"/>
        </g>
      </g>
      <path d="M72.73,107.429c-1.31-2.78-3.02-5.23-5.09-7.32,1.25-.9,2.28-2.12,3.08-3.66,1.33-2.55,2.01-5.69,2.01-9.32,0-4.73-1.14-9.26-3.37-13.45-2.24-4.2-4.9-7.24-7.9-9.02-2.78-1.64-6.76-3.22-12.18-4.83l-20.78-6.15v13.15l7.02,2.08v48.31l-7.02-2.1v13.15l21.19,6.35c4.41,1.33,7.96,2.11,10.55,2.32,2.7.23,5.23-.16,7.52-1.15,2.37-1.04,4.29-2.95,5.71-5.69,1.41-2.72,2.13-6.05,2.13-9.88,0-4.44-.96-8.74-2.87-12.79ZM47.69,72.519l3.6,1.07c8.22,2.44,9.27,6.94,9.27,10.58,0,2.81-.6,4.65-1.84,5.63-.89.69-2.89,1.24-7.43-.11l-3.6-1.07v-16.1ZM61.91,121.469c-.99,1.25-2.24,1.83-3.81,1.77-1.84-.06-4.85-.71-8.94-1.94l-1.47-.44v-19.18l3.15.94c3.25.97,5.76,2.01,7.48,3.09,1.51.96,2.71,2.29,3.66,4.08.95,1.77,1.41,3.74,1.41,6.02,0,2.55-.48,4.4-1.48,5.66Z"/>
      <path d="M160.29,65.339c-2.44-3.17-5.55-4.77-9.24-4.76-3.46.01-8.44,1.03-15.21,3.1l-24.18,7.36v12.28l7.83-2.33v45.27l-7.83,2.17v12.28l29.16-7.95v-12.45l-8.06,2.26v-12.93l2.36-.67c5.57-1.6,9.64-3.02,12.44-4.34,2.91-1.38,5.57-3.22,7.91-5.48,2.42-2.35,4.45-5.47,6.06-9.31,1.58-3.79,2.38-7.82,2.38-11.96,0-5.2-1.22-9.42-3.62-12.54ZM147.76,90.749c-1.38,1.5-4.51,3.72-11.56,5.77l-3.44,1v-20.49l3.88-1.17c4.14-1.24,7.08-1.88,8.76-1.9,1.4-.01,2.57.6,3.56,1.88,1.03,1.31,1.55,3.29,1.55,5.86,0,4.02-.93,7.06-2.75,9.05Z"/>
    </g>
  </g>
</svg>