<?xml version="1.0" encoding="UTF-8"?>
<svg id="b" data-name="Layer 2" xmlns="http://www.w3.org/2000/svg" width="1124.733" height="439.987" viewBox="0 0 1124.733 439.987">
  <g id="c" data-name="Layer 2">
    <g>
      <g>
        <path d="M496.837,326.573c2.083-11.618,6.827-21.842,8.206-33.029,3.958-5.774,8.179-15.893.484-20.339-4.709-6.244,3.258-10.573-.78-16.974-6.711-9.004-14.216-17.054-22.607-24.253,19.544,2.047,34.963-14.278,54.255-8.951,6.542,1.431,13.151-4.289,10.969-11.143,11.664-7.656,22.449-16.693,34.772-23.331,10.429.994,13.717-10.331,7.173-17.558,11.475-6.133,14.514-18.091,17.629-29.444,3.679-1.248,6.819-4.629,6.646-8.603-.317-21.91-13.821-39.421-29.598-53.234,2.041-12.363-15.667-16.446-22.855-23.832-3.556-8.777,42.32-19.795,44.929-12.161,4.223,9.52,18.965,2.656,16.45-6.931-2.955-8.864-8.929-26.996-20.876-18.071-4.689-3.091-10.55-7.685-16.994-4.813-15.593,7.161-30.082,15.119-41.896,27.088-3.339-8.742-16.302-11.548-22.016-2.724-3.609-4.001-9.011-1.803-13.067-1.731-5.175-2.391-9.247-7.462-15.958-3.275-4.781,6.474-15.393-4.455-20.236,3.787-6.986-4.525-15.341-1.839-21.737-6.358-11.483-1.738-22.579,2.53-33.698,5.065-11.217-1.337-25.905,2.248-28.983,12.597-8.327,7.719-18.461,8.002-28.934,13.446-7.857,7.064-18.532,11.429-27.696,17.947-5.403,2.385-2.649,8.915-6.184,11.524-3.225,2.077-3.726,5.582-5.156,8.432-7.325-1.833-14.983,5.232-19.601,10.527-5.556,8.227,6.098,10.225,2.351,16.872-8.14,2.923-6.468,13.778-6.41,20.735-5.058,9.103-3.957,32.093,11.598,24.427.822,10.027,11.839,34.206,23.462,32.922,8.513,9.818,25.45,22.14,38.844,15.479,9.421-6.221.996-21.276-8.464-15.912-4.973-30.15-11.535-11.369-27.909-28.168-2.478-13.05-12.96-23.765-12.704-37.672,12.358,1.908,11.543-10.791,9.822-19.315,9.168-9.803,15.666-20.8,24.306-30.638,26.528-8.697,50.641-24.259,76.193-34.643,6.828,4.149,15.51,4.426,22.585.82,6.594,3.024,13.983,3.571,21.234,2.032,14.108-1.332,27.852-4.498,41.286-.163-35.332,27.817-62.239,63.313-93.13,94.282-4.128,3.838-2.891,9.633.498,12.968-21.721,24.158-44.08,46.82-65.053,71.817-35.589,33.591-69.366,69.602-105.667,102.254-14.962,8.19-30.181,16.485-44.137,27.709-8.196,6.915-24.173,8.998-25.882,20.905-12.714,4.407-25.26,11.057-38.203,7.699-28.15,6.526-63.301,13.74-87.564-5.68-3.106-7.158-7.565-14.033-13.642-19.085-1.21-12.902-8.515-23.107-6.246-36.149,8.198-44.618,42.166-77.857,74.598-107.605,7.426-5.739,14.292-11.75,23.3-13.371,25.552-20.493,56.874-28.745,88.899-27.593,12.828,3.674,21.245,17.585,34.863,21.692,34.397,31.001-6.312,41.615,5.265,56.108-6.324,4.565-12.226,9.669-18.102,14.532-2.446-1.612-5.642-2.012-8.948-.066-10.594,5.893-21.136,13.108-31.77,18.352-23.209-7.572-48.594-12.64-71.997-2.771-4.361,2.724-9.507-3.826-14.31-.899-7.092-9.559-21.725-2.383-16.784,8.23-3.297,14.497,16.627,22.056,26.412,29.477,6.641,2.991,11.6-2.292,20.073,1.069,9.231,7.626,22.31,1.735,32.409-1.002,7.978-2.304,22.503-1.92,25.813-10.636,9.656,13.167,51.62-30.908,62.414-36.439,13.304-11.327,42.261-37.664,31.869-57.274,2.185-7.731,8.395-22.057-.656-27.059-1.832-5.911-4.548-14.891-11.855-15.32-1.895-3.532-6.303-3.445-9.629-4.568-4.251-5.938-12.578-10.064-20.002-8.406-8.392-3.393-15.583-12.551-25.701-9.213-7.503-5.055-16.141-6.678-23.499-.281-19.047.587-34.921,9.738-52.434,15.745-4.413-.1-8.575.124-11.901,3.41-16.337,14.19-39.417,15.945-53.387,32.909-6.934,8.868-24.584,13.456-24.743,25.548-10.784,10.69-21.48,21.47-32.07,32.355-2.755,2.831-3.324,7.175-1.577,10.566-3.057,3.751-3.623,8.987-5.921,13.189-4.855,5.352-4.927,11.794-6.752,18.094-6.7,11.853-10.798,25.19-9.379,38.993-18.309,6.098,9.392,49.79,17.097,58.298,28.886,36.951,79.789,31.84,118.394,15.403,37.839-3.821,73.241-24.516,100.61-49.485,41.642-24.934,74.483-66.027,109.534-101.121,13.588-10.747,25.118-24.091,36.112-37.462,2.915-9.54,8.241-16.561,13.7-25.098,10.016-14.917,26.074-25.14,38.234-38.779,3.092-16.751,24.538-25.454,22.424-38.978,12.291-9.88,63.283-84.851,77.247-63.673,3.632,10.026,16.492,15.135,20.955,25.771,20.931,29.888-3.356,59.46-23.963,81.553-6.78,6.975-13.28,10.568-22.461,11.307-14.052,5.855-26.926,17.092-41.916,18.509-6.786,1.815-12.301,5.508-16.67,10.707-10.442,3.191-19.139-2.896-29.682,1.988-9.467,2.025-29.918-1.668-29.244,12.757,1.138,5.734,6.526,10.284,12.285,8.572,51.315-3.844,52.894,15.936,60.234,60.495-11.226.557-12.566,16.021-17.138,24.068-12.103,10.391-22.48,22.594-30.953,36.117-12.884,15.779-29.913,28.158-43.481,43.566-8.42,4.195-17.656-1.182-25.742,2.156.323-2.504.421-12.714-8.519-12.676-12.25,1.136-15.513,4.346-15.334-10.054,8.472-4.393,4.406-15.731,2.507-22.869,2.568-.289,4.974-1.632,6.353-4.269,5.067-13.841,19.508-23.094,23.873-36.304,11.501,5.231,23.532-4.761,35.271-9.502,14.486,1.187,29.59-9.82,43.947-13.235,4.569-1.653,7.645-6.126,6.285-11.074-4.768-13.097-19.228-2.392-28.068-.15-6.991-4.865-14.916,2.901-21.857,4.773-3.704-5.628-10.367-4.133-15.375-1.222-2.761-1.67-6.372-1.897-9.246-.147-12.993,9.925-41.01,24.671-40.897,42.218-2.84,6.475-12.667-5.648-17.03,7.382-.425,12.71-4.282,24.412-5.659,36.722-1.622,6.34-8.808,10.918-5.034,18.098,4.498,8.033,10.615,14.688,19.688,16.835-1.368,4.544,1.952,10.626,6.916,11.086-7.289,10.13,5.485,22.753,14.505,12.263,3.605,4.887,11.991,4.866,14.94-.821,4.281-1.209,12.331,6.164,17.052-.791,10.529-6.639,15.913-14.938,28.257-15.198,12.537-7.572,23.495-19.009,37.445-21.822,24.916-17.338,42.594-41.931,50.097-70.834ZM494.446,36.593c.245-.026.299-.01,0,0h0ZM302.633,113.843c-.03.152-.047.304-.07.456-.113-.096.064-.311.07-.456ZM360.906,204.775c1.226-.441,1.416.651,0,0h0ZM324.771,352.039c-.606-.28-.052-.315,0,0h0Z"/>
        <path d="M1109.568,217.846c-21.234,21.806-43.215,43.045-67.171,61.669,6.126-51.397-16.454-29.741,9.583-90.421,4.877-5.392,7.724-11.745,10.046-18.678,2.906-9.758-11.436-15.852-16.45-6.935-2.767,6.099-8.353,9.39-11.322,15.481-7.227,8.519-11.162,19.217-17.513,28.39-6.88,1.925-7.84,10.944-12.091,15.862-13.7,12.155-27.666,24.257-37.339,40.075-7.988,7.386-10.599,18.062-20.354,22.624-10.373,11.492-18.243,25.026-29.973,35.246-16.762,14.203-30.731,36.621-53.142,41.209,6.981-17.613,21.294-30.933,33.887-44.409,15.122-22.522,30.877-45.423,42.302-68.595,13.527-13.569,26.155-28.103,38.949-42.381,7.275-9.241-1.913-14.246-8.644-16.435-8.532-8.462-19.218,3.611-26.216,8.872-11.314,2.291-13.927,17.662-18.916,25.998-8.77-10.582-1.394-9.573-7.33-20.048-2.58-4.181-6.501-7.418-11.411-8.289-3.433-6.377-11.75-4.15-17.407-.843-9.26-12.122-34.811,16.518-45.903,20.742-10.785,14.654-28.855,22.853-39.303,38.351-12.691,14.433-20.095,30.87-31.512,45.931-22.387,19.338-44.075,39.947-67.947,57.375,5.206-9.607,4.294-22.25,10.913-31.162,3.417-2.258,4.476-5.68,3.998-8.868,6.32-8.032,13.494-15.347,19.744-23.405,14.395-7.008,23.219-24.021,32.261-36.905,5.553-4.812,10.263-10.48,13.91-17.004,1.157-5.442,5.221-8.186,8.989-12.024,5.125-4.864-.07-10.036,5.653-13.674,13.379-6.083,20.216-18.524,27.052-30.522,13.086-14.995,25.893-30.919,37.674-46.988,8.415,2.725,13.97-7.332,10.129-15.046,14.129-14.366,34.79-25.838,44.756-42.929,22.803-16.851,13.106-10.762,39.195-4.637,2.084,7.759,11.119,6.079,17.042,8.519,4.971,11.213,3.628,24.027-2.874,34.379-7.321,20.297-47.793,17.6-47.796,39.546-6.975,7,2.617,18.925,11.22,13.824,21.605-14.499,46.29-26.983,61.122-48.942,2.354-3.647,1.658-7.184-.497-9.679,2.138-9.61,1.308-19.848-1.286-29.327,6.369-13.18-24.994-32.27-36.401-35.614,8.683-4.364,18.209-1.468,27.699-3.192,25.822-6.46,52.336,1.178,78.233,5.903,4.406,2.37,10.908,10.256,8.096,15.389-6.014,5.684-3.524,16.56-5.609,24.172-7.089,9.863-21.283,13.326-23.693-1.179,8.081-.894,12.972-9.127,10.383-16.781-3.707-11.321-19.864-13.16-24.833-1.721-20.168,50.506,45.751,67.32,64.477,21.172,21.784-44.02-1.803-49.425-35.227-67.172-9.162-9.072-21.856-6.6-33.289-5.709-1.21-3.088-3.924-5.374-7.96-4.896-23.731,3.74-16.176-8.217-43.618,6.466-16.464-2.708-34.252,2.89-50.012,10.711-3.33,1.607-4.618,4.6-4.43,7.617-4.015,1.67-8.167,4.927-7.558,9.373-12.98-11.327-13.731,3.462-43.623-.692-32.717,16.487-67.069,34.1-91.917,61.394-9.293,10.443-28.941,21.057-28.283,36.112-2.804,3.781-7.295,7.879-6.464,12.908-11.933,15.259-25.581,29.356-34.454,46.824-9.954,9.571-19.151,20.043-25.707,32.893-8.012,9.766-7.762,22.706-18.469,30.4-5.712,8.173-15.41,13.362-24.043,18.234-15.279,12.01-30.203,24.73-45.636,36.343-9.697,8.948-16.117,21.928-30.24,23.985-13.526,7.503-22.475,19.713-38.639,19.903,2.603-9.436-.079-19.538,9.159-25.026,26.998-75.934,41.744-22.031,82.156-66.012,13.514-19.879,47.984-33.883,41.686-62.991-4.421-14.152-21.066-11.068-32.057-7.928-3.031-4.919-9.314-5.88-13.555-1.376-28.112,20.304-58.129,37.548-80.777,65.228-3.173,3.456-3.216,7.294-1.567,10.226-4.393,6.457-8.785,12.914-13.178,19.371-2.87,7.474-5.108,15.901-10.38,22.165-5.627,13.01-17.246,40.52-2.801,50.095.078,4.965,2.522,10.155,6.332,13.232,19.611,32.98,78.785-22.402,97.27-38.045-3.45,14.491,4.412,43.979,23.638,35.581,20.374,2.851,29.301-21.411,46.72-28.37,9.648,58.271,64.59-1.761,86.284-19.603-3.203,9.806-1.362,18.555-.253,27.933,1.738,8.576,12.234,16.536,20.619,18.224,20.241,1.347,39.684-14.866,56.379-25.393,4.691,83.088,109.032-22.46,123.935-53.457,7.46-8.516,26.436-17.625,20.991-31.195,8.444-9.197,19.299-15.785,27.255-25.854,2.016,8.411-3.594,19.045.395,28.845-.26,9.584,3.892,19.859-2.831,27.094-22.082,14.607-73.876,43.379-81.244,68.538-14.794,18.873,6.435,41.713,26.52,42.668,27.435-5.765,60.371-6.654,73.919-37.276,9.075-17.882,12.353-39.562,13.4-59.389-2.178-11.901,4.427-15.805,14.222-20.625,20.426-16.437,39.533-33.504,60.277-50.045,5.299-3.932.052-9.357,5.408-12.673,7.791-8.545-4.903-21.311-12.728-12.728ZM630.091,359.401c.165.125.117.14,0,0h0ZM648.311,350.009c-5.436,1.566-10.031,4.818-13.564,9.177-12.847-20.396,23.681-39.588,31.722-58.686,20.212-12.884,26.402-36.331,43.016-52.078,14.056-12.834,20.553-16.152,24.803-34.086,9.127-12.71,20.607-23.43,31.199-34.889,20.691-15.806,29.438-42.69,52.718-55.33,13.037-19.852,32.544-37.256,55.374-46.8-9.853,7.614-16.431,17.923-20.804,28.321-7.793,10.296-47.539,28.861-35.509,42.333.877,6.538-5.949,5.041-9.881,8.965-10.806,12.714-20.836,26.067-29.974,40.029-1.501,11.208-1.295,12.081-8.455,22.371-18.804-7.374-23.655,21.462-30.441,33.033-11.829,14.174-28.247,24.034-38.572,40.039-2.734,11.208-14.167,17.688-22.355,25.782-4.365,4.061-11.883,7.382-9.901,14.559-6.036,6.068-12.504,11.973-19.374,17.261ZM641.719,219.818c.593.102.354.323,0,0h0ZM637.645,220.25c8.78-.703-13.204,19.861-16.312,22.479-4.632,2.408-10.794,6.22-11.2,11.933-10.315,7.095-22.047,10.697-31.976,18.499,3.065-9.206,9.171-15.279,15.638-22.778,5.23-19.026,25.62-25.976,43.849-30.135ZM783.668,359.284c5.689-18.843,16.123-36.089,25.854-53.383,8.089-8.917,18.847-18.866,21.279-30.916,15.325-16.11,25.182-36.193,43.014-49.908,8.745,3.691,17.254-5.095,25.463-8.2-1.984,13.563,1.343,14.219,3.882,24.258-8.698,13.394-8.064,34.151-22.339,43.749-17.772,13.251-26.937,35.146-46.631,45.813-14.952,11.705-30.596,28.302-50.522,28.586ZM1003.859,330.467c.697,19.451-7.788,40.475-26.533,48.545-9.818,2.633-22.045,6.383-29.656-2.612,2.312-3.37,4.845-8.157,3.001-12.286,17.036-12.676,33.416-27.686,51.933-38.915.323,1.773.744,3.527,1.255,5.267Z"/>
        <path d="M1005.135,175.594c.572,8.419,12.24,12.867,16.771,4.542,6.304-10.522,12.65-52.983-7.165-50.355-11.576,3.647-16.247,20.243-6.868,28.729-.03,5.67-3.449,11.293-2.739,17.084Z"/>
      </g>
      <g>
        <path d="M492.837,314.573c2.083-11.618,6.827-21.842,8.206-33.029,3.958-5.774,8.179-15.893.484-20.339-4.709-6.244,3.258-10.573-.78-16.974-6.711-9.004-14.216-17.054-22.607-24.253,19.544,2.047,34.963-14.278,54.255-8.951,6.542,1.431,13.151-4.289,10.969-11.143,11.664-7.656,22.449-16.693,34.772-23.331,10.429.994,13.717-10.331,7.173-17.558,11.475-6.133,14.514-18.091,17.629-29.444,3.679-1.248,6.819-4.629,6.646-8.603-.317-21.91-13.821-39.421-29.598-53.234,2.041-12.363-15.667-16.446-22.855-23.832-3.556-8.777,42.32-19.795,44.929-12.161,4.223,9.52,18.965,2.656,16.45-6.931-2.955-8.864-8.929-26.996-20.876-18.071-4.689-3.091-10.55-7.685-16.994-4.813-15.593,7.161-30.082,15.119-41.896,27.088-3.339-8.742-16.302-11.548-22.016-2.724-3.609-4.001-9.011-1.803-13.067-1.731-5.175-2.391-9.247-7.462-15.958-3.275-4.781,6.474-15.393-4.455-20.236,3.787-6.986-4.525-15.341-1.839-21.737-6.358-11.483-1.738-22.579,2.53-33.698,5.065-11.217-1.337-25.905,2.248-28.983,12.597-8.327,7.719-18.461,8.002-28.934,13.446-7.857,7.064-18.532,11.429-27.696,17.947-5.403,2.385-2.649,8.915-6.184,11.524-3.225,2.077-3.726,5.582-5.156,8.432-7.325-1.833-14.983,5.232-19.601,10.527-5.556,8.227,6.098,10.225,2.351,16.872-8.14,2.923-6.468,13.778-6.41,20.735-5.058,9.103-3.957,32.093,11.598,24.427.822,10.027,11.839,34.206,23.462,32.922,8.513,9.818,25.45,22.14,38.844,15.479,9.421-6.221.996-21.276-8.464-15.912-4.973-30.15-11.535-11.369-27.909-28.168-2.478-13.05-12.96-23.765-12.704-37.672,12.358,1.908,11.543-10.791,9.822-19.315,9.168-9.803,15.666-20.8,24.306-30.638,26.528-8.697,50.641-24.259,76.193-34.643,6.828,4.149,15.51,4.426,22.585.82,6.594,3.024,13.983,3.571,21.234,2.032,14.108-1.332,27.852-4.498,41.286-.163-35.332,27.817-62.239,63.313-93.13,94.282-4.128,3.838-2.891,9.633.498,12.968-21.721,24.158-44.08,46.82-65.053,71.817-35.589,33.591-69.366,69.602-105.667,102.254-14.962,8.19-30.181,16.485-44.137,27.709-8.196,6.915-24.173,8.998-25.882,20.905-12.714,4.407-25.26,11.057-38.203,7.699-28.15,6.526-63.301,13.74-87.564-5.68-3.106-7.158-7.565-14.033-13.642-19.085-1.21-12.902-8.515-23.107-6.246-36.149,8.198-44.618,42.166-77.857,74.598-107.605,7.426-5.739,14.292-11.75,23.3-13.371,25.552-20.493,56.874-28.745,88.899-27.593,12.828,3.674,21.245,17.585,34.863,21.692,34.397,31.001-6.312,41.615,5.265,56.108-6.324,4.565-12.226,9.669-18.102,14.532-2.446-1.612-5.642-2.012-8.948-.066-10.594,5.893-21.136,13.108-31.77,18.352-23.209-7.572-48.594-12.64-71.997-2.771-4.361,2.724-9.507-3.826-14.31-.899-7.092-9.559-21.725-2.383-16.784,8.23-3.297,14.497,16.627,22.056,26.412,29.477,6.641,2.991,11.6-2.292,20.073,1.069,9.231,7.626,22.31,1.735,32.409-1.002,7.978-2.304,22.503-1.92,25.813-10.636,9.656,13.167,51.62-30.908,62.414-36.439,13.304-11.327,42.261-37.664,31.869-57.274,2.185-7.731,8.395-22.057-.656-27.059-1.832-5.911-4.548-14.891-11.855-15.32-1.895-3.532-6.303-3.445-9.629-4.568-4.251-5.938-12.578-10.064-20.002-8.406-8.392-3.393-15.583-12.551-25.701-9.213-7.503-5.055-16.141-6.678-23.499-.281-19.047.587-34.921,9.738-52.434,15.745-4.413-.1-8.575.124-11.901,3.41-16.337,14.19-39.417,15.945-53.387,32.909-6.934,8.868-24.584,13.456-24.743,25.548-10.784,10.69-21.48,21.47-32.07,32.355-2.755,2.831-3.324,7.175-1.577,10.566-3.057,3.751-3.623,8.987-5.921,13.189-4.855,5.352-4.927,11.794-6.752,18.094-6.7,11.853-10.798,25.19-9.379,38.993-18.309,6.098,9.392,49.79,17.097,58.298,28.886,36.951,79.789,31.84,118.394,15.403,37.839-3.821,73.241-24.516,100.61-49.485,41.642-24.934,74.483-66.027,109.534-101.121,13.588-10.747,25.118-24.091,36.112-37.462,2.915-9.54,8.241-16.561,13.7-25.098,10.016-14.917,26.074-25.14,38.234-38.779,3.092-16.751,24.538-25.454,22.424-38.978,12.291-9.88,63.283-84.851,77.247-63.673,3.632,10.026,16.492,15.135,20.955,25.771,20.931,29.888-3.356,59.46-23.963,81.553-6.78,6.975-13.28,10.568-22.461,11.307-14.052,5.855-26.926,17.092-41.916,18.509-6.786,1.815-12.301,5.508-16.67,10.707-10.442,3.191-19.139-2.896-29.682,1.988-9.467,2.025-29.918-1.668-29.244,12.757,1.138,5.734,6.526,10.284,12.285,8.572,51.315-3.844,52.894,15.936,60.234,60.495-11.226.557-12.566,16.021-17.138,24.068-12.103,10.391-22.48,22.594-30.953,36.117-12.884,15.779-29.913,28.158-43.481,43.566-8.42,4.195-17.656-1.182-25.742,2.156.323-2.504.421-12.714-8.519-12.676-12.25,1.136-15.513,4.346-15.334-10.054,8.472-4.393,4.406-15.731,2.507-22.869,2.568-.289,4.974-1.632,6.353-4.269,5.067-13.841,19.508-23.094,23.873-36.304,11.501,5.231,23.532-4.761,35.271-9.502,14.486,1.187,29.59-9.82,43.947-13.235,4.569-1.653,7.645-6.126,6.285-11.074-4.768-13.097-19.228-2.392-28.068-.15-6.991-4.865-14.916,2.901-21.857,4.773-3.704-5.628-10.367-4.133-15.375-1.222-2.761-1.67-6.372-1.897-9.246-.147-12.993,9.925-41.01,24.671-40.897,42.218-2.84,6.475-12.667-5.648-17.03,7.382-.425,12.71-4.282,24.412-5.659,36.722-1.622,6.34-8.808,10.918-5.034,18.098,4.498,8.033,10.615,14.688,19.688,16.835-1.368,4.544,1.952,10.626,6.916,11.086-7.289,10.13,5.485,22.753,14.505,12.263,3.605,4.887,11.991,4.866,14.94-.821,4.281-1.209,12.331,6.164,17.052-.791,10.529-6.639,15.913-14.938,28.257-15.198,12.537-7.572,23.495-19.009,37.445-21.822,24.916-17.338,42.594-41.931,50.097-70.834ZM490.446,24.593c.245-.026.299-.01,0,0h0ZM298.633,101.843c-.03.152-.047.304-.07.456-.113-.096.064-.311.07-.456ZM356.906,192.775c1.226-.441,1.416.651,0,0h0ZM320.771,340.039c-.606-.28-.052-.315,0,0h0Z" fill="#ddd" stroke="#141414" stroke-miterlimit="10" stroke-width="2"/>
        <path d="M1105.568,205.846c-21.234,21.806-43.215,43.045-67.171,61.669,6.126-51.397-16.454-29.741,9.583-90.421,4.877-5.392,7.724-11.745,10.046-18.678,2.906-9.758-11.436-15.852-16.45-6.935-2.767,6.099-8.353,9.39-11.322,15.481-7.227,8.519-11.162,19.217-17.513,28.39-6.88,1.925-7.84,10.944-12.091,15.862-13.7,12.155-27.666,24.257-37.339,40.075-7.988,7.386-10.599,18.062-20.354,22.624-10.373,11.492-18.243,25.026-29.973,35.246-16.762,14.203-30.731,36.621-53.142,41.209,6.981-17.613,21.294-30.933,33.887-44.409,15.122-22.522,30.877-45.423,42.302-68.595,13.527-13.569,26.155-28.103,38.949-42.381,7.275-9.241-1.913-14.246-8.644-16.435-8.532-8.462-19.218,3.611-26.216,8.872-11.314,2.291-13.927,17.662-18.916,25.998-8.77-10.582-1.394-9.573-7.33-20.048-2.58-4.181-6.501-7.418-11.411-8.289-3.433-6.377-11.75-4.15-17.407-.843-9.26-12.122-34.811,16.518-45.903,20.742-10.785,14.654-28.855,22.853-39.303,38.351-12.691,14.433-20.095,30.87-31.512,45.931-22.387,19.338-44.075,39.947-67.947,57.375,5.206-9.607,4.294-22.25,10.913-31.162,3.417-2.258,4.476-5.68,3.998-8.868,6.32-8.032,13.494-15.347,19.744-23.405,14.395-7.008,23.219-24.021,32.261-36.905,5.553-4.812,10.263-10.48,13.91-17.004,1.157-5.442,5.221-8.186,8.989-12.024,5.125-4.864-.07-10.036,5.653-13.674,13.379-6.083,20.216-18.524,27.052-30.522,13.086-14.995,25.893-30.919,37.674-46.988,8.415,2.725,13.97-7.332,10.129-15.046,14.129-14.366,34.79-25.838,44.756-42.929,22.803-16.851,13.106-10.762,39.195-4.637,2.084,7.759,11.119,6.079,17.042,8.519,4.971,11.213,3.628,24.027-2.874,34.379-7.321,20.297-47.793,17.6-47.796,39.546-6.975,7,2.617,18.925,11.22,13.824,21.605-14.499,46.29-26.983,61.122-48.942,2.354-3.647,1.658-7.184-.497-9.679,2.138-9.61,1.308-19.848-1.286-29.327,6.369-13.18-24.994-32.27-36.401-35.614,8.683-4.364,18.209-1.468,27.699-3.192,25.822-6.46,52.336,1.178,78.233,5.903,4.406,2.37,10.908,10.256,8.096,15.389-6.014,5.684-3.524,16.56-5.609,24.172-7.089,9.863-21.283,13.326-23.693-1.179,8.081-.894,12.972-9.127,10.383-16.781-3.707-11.321-19.864-13.16-24.833-1.721-20.168,50.506,45.751,67.32,64.477,21.172,21.784-44.02-1.803-49.425-35.227-67.172-9.162-9.072-21.856-6.6-33.289-5.709-1.21-3.088-3.924-5.374-7.96-4.896-23.731,3.74-16.176-8.217-43.618,6.466-16.464-2.708-34.252,2.89-50.012,10.711-3.33,1.607-4.618,4.6-4.43,7.617-4.015,1.67-8.167,4.927-7.558,9.373-12.98-11.327-13.731,3.462-43.623-.692-32.717,16.487-67.069,34.1-91.917,61.394-9.293,10.443-28.941,21.057-28.283,36.112-2.804,3.781-7.295,7.879-6.464,12.908-11.933,15.259-25.581,29.356-34.454,46.824-9.954,9.571-19.151,20.043-25.707,32.893-8.012,9.766-7.762,22.706-18.469,30.4-5.712,8.173-15.41,13.362-24.043,18.234-15.279,12.01-30.203,24.73-45.636,36.343-9.697,8.948-16.117,21.928-30.24,23.985-13.526,7.503-22.475,19.713-38.639,19.903,2.603-9.436-.079-19.538,9.159-25.026,26.998-75.934,41.744-22.031,82.156-66.012,13.514-19.879,47.984-33.883,41.686-62.991-4.421-14.152-21.066-11.068-32.057-7.928-3.031-4.919-9.314-5.88-13.555-1.376-28.112,20.304-58.129,37.548-80.777,65.228-3.173,3.456-3.216,7.294-1.567,10.226-4.393,6.457-8.785,12.914-13.178,19.371-2.87,7.474-5.108,15.901-10.38,22.165-5.627,13.01-17.246,40.52-2.801,50.095.078,4.965,2.522,10.155,6.332,13.232,19.611,32.98,78.785-22.402,97.27-38.045-3.45,14.491,4.412,43.979,23.638,35.581,20.374,2.851,29.301-21.411,46.72-28.37,9.648,58.271,64.59-1.761,86.284-19.603-3.203,9.806-1.362,18.555-.253,27.933,1.738,8.576,12.234,16.536,20.619,18.224,20.241,1.347,39.684-14.866,56.379-25.393,4.691,83.088,109.032-22.46,123.935-53.457,7.46-8.516,26.436-17.625,20.991-31.195,8.444-9.197,19.299-15.785,27.255-25.854,2.016,8.411-3.594,19.045.395,28.845-.26,9.584,3.892,19.859-2.831,27.094-22.082,14.607-73.876,43.379-81.244,68.538-14.794,18.873,6.435,41.713,26.52,42.668,27.435-5.765,60.371-6.654,73.919-37.276,9.075-17.882,12.353-39.562,13.4-59.389-2.178-11.901,4.427-15.805,14.222-20.625,20.426-16.437,39.533-33.504,60.277-50.045,5.299-3.932.052-9.357,5.408-12.673,7.791-8.545-4.903-21.311-12.728-12.728ZM626.091,347.401c.165.125.117.14,0,0h0ZM644.311,338.009c-5.436,1.566-10.031,4.818-13.564,9.177-12.847-20.396,23.681-39.588,31.722-58.686,20.212-12.884,26.402-36.331,43.016-52.078,14.056-12.834,20.553-16.152,24.803-34.086,9.127-12.71,20.607-23.43,31.199-34.889,20.691-15.806,29.438-42.69,52.718-55.33,13.037-19.852,32.544-37.256,55.374-46.8-9.853,7.614-16.431,17.923-20.804,28.321-7.793,10.296-47.539,28.861-35.509,42.333.877,6.538-5.949,5.041-9.881,8.965-10.806,12.714-20.836,26.067-29.974,40.029-1.501,11.208-1.295,12.081-8.455,22.371-18.804-7.374-23.655,21.462-30.441,33.033-11.829,14.174-28.247,24.034-38.572,40.039-2.734,11.208-14.167,17.688-22.355,25.782-4.365,4.061-11.883,7.382-9.901,14.559-6.036,6.068-12.504,11.973-19.374,17.261ZM637.719,207.818c.593.102.354.323,0,0h0ZM633.645,208.25c8.78-.703-13.204,19.861-16.312,22.479-4.632,2.408-10.794,6.22-11.2,11.933-10.315,7.095-22.047,10.697-31.976,18.499,3.065-9.206,9.171-15.279,15.638-22.778,5.23-19.026,25.62-25.976,43.849-30.135ZM779.668,347.284c5.689-18.843,16.123-36.089,25.854-53.383,8.089-8.917,18.847-18.866,21.279-30.916,15.325-16.11,25.182-36.193,43.014-49.908,8.745,3.691,17.254-5.095,25.463-8.2-1.984,13.563,1.343,14.219,3.882,24.258-8.698,13.394-8.064,34.151-22.339,43.749-17.772,13.251-26.937,35.146-46.631,45.813-14.952,11.705-30.596,28.302-50.522,28.586ZM999.859,318.467c.697,19.451-7.788,40.475-26.533,48.545-9.818,2.633-22.045,6.383-29.656-2.612,2.312-3.37,4.845-8.157,3.001-12.286,17.036-12.676,33.416-27.686,51.933-38.915.323,1.773.744,3.527,1.255,5.267Z" fill="#ddd" stroke="#141414" stroke-miterlimit="10" stroke-width="2"/>
        <path d="M1001.135,163.594c.572,8.419,12.24,12.867,16.771,4.542,6.304-10.522,12.65-52.983-7.165-50.355-11.576,3.647-16.247,20.243-6.868,28.729-.03,5.67-3.449,11.293-2.739,17.084Z" fill="#ddd" stroke="#141414" stroke-miterlimit="10" stroke-width="2"/>
      </g>
    </g>
  </g>
</svg>