<?xml version="1.0" encoding="UTF-8"?>
<svg id="b" data-name="Layer 2" xmlns="http://www.w3.org/2000/svg" width="1111.244" height="269.229" viewBox="0 0 1111.244 269.229">
  <g id="c" data-name="Layer 2">
    <path d="M991.615,268.729c-6.937,0-13.398-1.236-19.317-3.687-1.752,1.161-3.851,1.823-6.09,1.823h-14.313c-2.375,0-4.634-.751-6.496-2.117-1.833,1.342-4.09,2.117-6.506,2.117h-85.644c-1.856,0-3.643-.459-5.223-1.312-1.563.842-3.351,1.312-5.237,1.312h-81.671c-3.373,0-6.512-1.515-8.611-4.155-.721-.908-1.284-1.904-1.683-2.954-5.216,2.874-10.976,4.808-17.143,5.754-5.855.899-14.467,1.355-25.593,1.355h-36.163c-1.266,0-2.499-.213-3.656-.619-1.149.402-2.381.619-3.658.619h-22.614c-5.182,0-9.595-3.53-10.732-8.586l-10.37-46.1-4.615,19.231c2.283.591,4.328,1.905,5.836,3.802,2.105,2.653,2.87,6.055,2.105,9.341l-3.22,13.809c-1.165,5.005-5.57,8.503-10.713,8.503h-38.078c-1.177,0-2.325-.185-3.41-.536-1.079.35-2.229.536-3.417.536h-41.696c-3.389,0-6.537-1.526-8.637-4.188-2.099-2.663-2.85-6.078-2.061-9.372l3.303-13.805c1.193-4.972,5.592-8.44,10.698-8.44h1.834l-.499-5.44h-24.828l-3.473,6.57c1.433.708,2.711,1.731,3.74,3.025,2.104,2.652,2.868,6.055,2.102,9.343l-3.218,13.804c-1.165,5.005-5.57,8.503-10.713,8.503h-41.902c-1.1,0-2.175-.161-3.197-.47-1.017.307-2.093.47-3.204.47h-36.758c-3.374,0-6.512-1.515-8.611-4.155-2.104-2.658-2.866-6.056-2.103-9.338l1.818-7.8-9.914,16.541c-1.981,3.299-5.595,5.344-9.435,5.344h-3.58c-5.476,0-10.162-4.092-10.899-9.519l-6.397-47.032-5.047,20.704c2.025.666,3.829,1.917,5.191,3.646,2.113,2.701,2.849,6.128,2.039,9.427l-3.387,13.804c-1.212,4.934-5.604,8.378-10.683,8.378h-34.438c-3.373,0-6.512-1.515-8.611-4.155-2.104-2.649-2.869-6.053-2.102-9.343l3.218-13.805c1.169-5.007,5.574-8.502,10.712-8.502h1.324l16.498-68.636c-2.153-.628-4.078-1.908-5.515-3.716-2.104-2.648-2.87-6.054-2.102-9.344l3.218-13.803c1.165-5.005,5.57-8.503,10.713-8.503h35.271c5.493,0,10.181,4.106,10.904,9.552l6.669,50.123,32.392-54.31c1.983-3.314,5.601-5.365,9.447-5.365h36.265c3.374,0,6.512,1.515,8.611,4.155,2.102,2.646,2.868,6.048,2.103,9.338l-3.22,13.81c-1.167,5.006-5.572,8.502-10.712,8.502h-1.839l-15.805,68.38c.399.074.793.17,1.179.286,1.017-.307,2.093-.47,3.204-.47h4.412l39.11-69.434c-1.348-.702-2.552-1.688-3.529-2.918-2.106-2.658-2.868-6.06-2.101-9.344l3.217-13.803c1.165-5.005,5.57-8.503,10.713-8.503h57.619c3.373,0,6.512,1.515,8.611,4.155,2.103,2.648,2.867,6.05,2.103,9.338l-3.22,13.81c-1.156,4.959-5.49,8.437-10.567,8.501l7.861,68.197h1.12c1.177,0,2.325.185,3.41.536,1.079-.349,2.229-.536,3.417-.536h1.155l16.463-68.489c-2.378-.56-4.512-1.899-6.072-3.862-2.105-2.649-2.871-6.057-2.101-9.349l3.217-13.798c.405-1.738,1.2-3.295,2.282-4.586-.915.243-1.864.367-2.829.367-2.417,0-4.802-.812-6.714-2.287l-1.168-.894c-2.536-1.93-4.11-4.885-4.298-8.093-.115-1.897.269-3.773,1.086-5.453-4.309,2.866-8.084,4.203-11.664,4.203-4.739,0-8.897-2.234-11.613-5.79-.491.688-.956,1.326-1.391,1.91-2.072,2.771-5.366,4.42-8.816,4.42-1.242,0-2.46-.207-3.627-.616-.889.229-1.808.346-2.742.346-3.196,0-6.229-1.387-8.32-3.805,0,0-.937-1.086-.992-1.152-4.419,2.838-8.828,4.688-12.789,4.688-3.346,0-6.402-1.114-8.865-3.021-4.665,2.785-7.768,3.29-10.115,3.29-5.56,0-10.215-2.801-13.077-7.366-6.396,3.981-13.782,7.366-20.403,7.366-4.789,0-8.57-2.024-11.267-5.095-5.821,4.094-9.683,4.825-12.593,4.825-4.739,0-8.896-2.235-11.613-5.79-.493.689-.959,1.33-1.397,1.916-2.057,2.76-5.354,4.414-8.81,4.414-1.243,0-2.461-.207-3.628-.615-.888.229-1.807.345-2.741.345-3.224,0-6.274-1.406-8.367-3.857,0,0-.897-1.053-.939-1.104-4.421,2.84-8.833,4.691-12.795,4.691-3.414,0-6.526-1.16-9.015-3.138-4.784,2.693-7.984,3.138-10.235,3.138-5.793,0-10.718-3.34-13.203-8.349-9.717,6.618-20.647,10.854-32.108,12.413v.675h-19.981v-.327c-6.117-.372-12.31-1.015-18.313-1.691-5.892,1.34-12.501,2.019-19.68,2.019-7.027,0-11.931-2.205-14.931-5.396-1.206.446-2.503.685-3.844.685-3.465,0-12.014,0-18.728-4.658-2.048,2.469-5.11,3.951-8.454,3.951h-18.639c-3.718,0-7.145-1.848-9.186-4.948-6.071,3.587-13.047,5.655-20.395,5.655-12.104,0-22.053-5.452-27.545-14.154-7.692,8.64-18.702,14.154-30.698,14.154-16.18,0-28.51-9.741-31.489-23.966-2.806,1.121-5.82,1.905-8.976,2.294,2.003,3.005,2.401,6.788,1.044,10.173l-1.551,3.877c-1.679,4.2-5.688,6.915-10.213,6.915h-20.051c-3.747,0-7.199-1.878-9.235-5.023-2.037-3.154-2.333-7.071-.798-10.486l1.274-2.83c1.22-2.725,3.462-4.792,6.207-5.802l5.147-24.188c-.958-.692-1.811-1.541-2.513-2.526-2.185-3.05-2.66-6.972-1.259-10.474l1.553-3.883c1.679-4.2,5.688-6.915,10.213-6.915h20.475c11.581,0,19.343,4.002,23.719,9.598,7.177-6.231,16.38-10.304,26.689-10.304,11.833,0,21.748,5.753,27.128,14.702,7.614-8.646,18.541-14.702,31.116-14.702,7.785,0,14.738,2.489,20.117,6.74,1.86-3.694,5.617-6.034,9.817-6.034h18.639c19.743,0,28.58,11.198,28.58,22.296,0,9.304-5.497,16.73-12.756,21.337l1.348,2.893c.825,1.73,1.18,2.479,4.189,3.674.604.24,1.182.533,1.728.872,3.315-2.384,7.72-3.794,12.685-3.794,3.869,0,8.022.499,12.251,1.202-7.921-4.189-13.086-12.538-13.086-22.597,0-22.292,13.953-42.529,37.497-54.647,6.141-9.521,15.139-15.377,25.639-16.602l.155-.017c.866-.088,1.73-.132,2.569-.132,6.434,0,11.958,2.496,15.864,7.021,8.806.638,16.651,3.09,23.18,7.225,6.282-3.812,13.819-7.123,21.05-7.123h.499l.077.007c13.348.251,16.93,9.206,16.93,14.519,0,7.308-5.725,13.032-13.033,13.032-2.748,0-5.385-.804-7.665-2.229-.588.354-1.249.785-1.979,1.309,2,5.083,3.111,10.657,3.271,16.505,1.123-.381,2.311-.583,3.518-.583.689,0,1.373.064,2.046.191,1.422-.653,2.983-1.001,4.594-1.001h1.77c2.24,0,4.37.673,6.151,1.875,1.452-.685,3.052-1.056,4.688-1.056.683,0,1.361.063,2.028.188,1.425-.657,2.993-1.008,4.612-1.008h1.77c3.014,0,5.828,1.218,7.865,3.305.997-.525,1.922-.88,2.823-1.129,1.843-.547,3.374-.547,4.222-.547,3.447,0,6.543.985,9.073,2.728.196-.11.393-.216.588-.317,2.799-1.6,5.842-2.41,9.049-2.41,6.76,0,12.503,3.704,15.385,9.254,7.011-5.547,15.243-9.523,23.785-9.523,5.607,0,10.383,2.532,13.286,6.564,5.414-3.476,11.822-6.024,18.974-6.024,2.352,0,4.557.394,6.553,1.125,1.889-1.411,4.207-2.205,6.597-2.205.684,0,1.362.063,2.029.188,1.425-.657,2.992-1.008,4.611-1.008h1.76c3.015,0,5.83,1.219,7.867,3.307,1.005-.531,1.937-.888,2.843-1.137,1.838-.541,3.304-.541,4.201-.541,3.45,0,6.548.985,9.08,2.728.195-.108.39-.214.585-.314,2.791-1.602,5.832-2.413,9.045-2.413,9.74,0,17.37,7.691,17.37,17.511,0,.794-.046,1.588-.132,2.38,2.419.965,4.455,2.777,5.694,5.188,1.894,3.679,1.576,8.058-.831,11.427-.326.457-.66.917-1,1.379,5.903,2.125,9.777,7.438,9.777,14.163,0,9.239-7.136,18.201-14.638,24.229.709-.142,1.441-.216,2.189-.216h34.329c10.227,0,17.161.233,21.196.713,5.021.596,10.162,2.385,15.279,5.317,5.63,3.225,10.078,7.814,13.218,13.642.594,1.103,1.13,2.241,1.609,3.412.045-.28.101-.561.167-.839l3.302-13.805c1.191-4.971,5.59-8.44,10.698-8.44h28.93c11.979,0,20.882.754,27.216,2.306,7.869,1.932,14.417,6.229,19.465,12.774.558.724,1.084,1.463,1.581,2.22l2.051-8.797c1.165-5.005,5.57-8.503,10.712-8.503h41.973c3.391,0,6.539,1.527,8.638,4.189,2.098,2.661,2.848,6.076,2.06,9.37l-3.303,13.805c-1.193,4.972-5.592,8.44-10.698,8.44h-3.695l-16.392,68.196h16.133l6.149-26.389c1.165-5.006,5.57-8.504,10.712-8.504h13.914c3.375,0,6.513,1.516,8.612,4.157,1.094,1.376,1.826,2.96,2.168,4.626l10.196-42.419c-2.314-.58-4.388-1.904-5.913-3.823-2.105-2.658-2.867-6.06-2.101-9.344l3.218-13.803c1.165-5.005,5.57-8.503,10.712-8.503h84.76c3.39,0,6.537,1.526,8.636,4.187.897,1.138,1.548,2.413,1.938,3.758,8.293-6.51,18.569-9.808,30.583-9.808,7.347,0,14.035,1.389,20.002,4.145,1.875-1.437,4.205-2.281,6.675-2.281h14.228c3.38,0,6.523,1.52,8.622,4.17,2.093,2.626,2.86,6.037,2.089,9.335l-7.452,31.925c-1.174,5.008-5.578,8.499-10.712,8.499h-14.228c-3.375,0-6.514-1.516-8.614-4.158-2.115-2.683-2.868-6.089-2.09-9.375l.822-3.484c-.75-.592-1.591-1.136-2.522-1.631-2.412-1.281-4.878-1.932-7.329-1.932-2.893,0-5.107.658-6.769,2.014-.966.787-1.457,1.532-1.457,3.416,0,.801.144,2.059,1.383,3.726.73.982,3.278,3.832,11.194,9.124,7.598,5.036,13.069,9.073,16.692,12.32,4.247,3.808,7.711,8.467,10.301,13.848,2.684,5.575,4.046,11.844,4.046,18.628,0,13.465-5.126,24.96-14.824,33.243-9.327,7.964-21.205,12.002-35.304,12.002ZM983.456,230.33c2.923,1.987,6.192,2.933,10.022,2.933,3.419,0,6.093-.866,8.175-2.649,1.945-1.665,2.336-2.979,2.336-4.559,0-1.862-.488-3.275-1.583-4.584-.939-1.121-4.182-4.434-13.953-10.924-9.907-6.685-16.724-12.964-20.9-19.239-1.778-2.673-3.214-5.515-4.301-8.512-1.729,1.115-3.785,1.75-5.972,1.75h-13.221c.625,1.864.74,3.88.302,5.857l-3.049,13.803c-.359,1.62-1.053,3.084-2,4.327h8.197c3.391,0,6.539,1.526,8.637,4.188.061.077.121.154.179.232.988-.287,2.031-.44,3.106-.44h14.312c3.367,0,6.502,1.511,8.602,4.144,2.109,2.653,2.876,6.054,2.113,9.342l-1.004,4.331ZM406.273,231.737c1.194-.438,2.482-.676,3.82-.676h2.203l3.356-14.972-9.379,15.647ZM667.913,231.062c1.25,0,2.468.208,3.612.604,1.137-.393,2.355-.604,3.618-.604h1.155l16.463-68.489c-2.303-.541-4.376-1.814-5.922-3.677.36,2.309.542,4.711.542,7.197,0,11.558-3.74,21.484-11.116,29.506-4.807,5.23-10.862,9.144-18.077,11.696l5.634,23.767h4.091ZM919.483,231.062l3.46-14.143c.372-1.522,1.047-2.903,1.953-4.086h-22.174l-4.382,18.229h21.143ZM716.032,231.037c6.328-.073,9.046-.296,10.163-.438,1.314-.167,2.655-.665,3.986-1.479.924-.564,1.843-1.693,2.662-3.269.946-1.818,1.425-3.974,1.425-6.402,0-2.3-.413-4.08-1.194-5.148-.254-.346-.908-1.171-1.464-1.291-.966-.208-3.882-.665-11.143-.754l-4.435,18.782ZM765.474,198.102c.338.464.668.938.988,1.422,2.578,3.892,4.405,8.074,5.468,12.502l11.843-49.271c-.73-.104-1.443-.279-2.129-.522.077,1.072.115,2.161.115,3.269,0,10.248-3.181,19.123-9.456,26.378-2.004,2.316-4.284,4.393-6.83,6.223ZM525.043,189.816l-.386-4.207-2.176,4.207h2.562ZM932.857,177.028c-.644-1.921-.745-4.001-.259-6.034l1.929-8.129h-19.795l-3.404,14.163h21.529ZM729.209,176.457c4.948-.239,7.465-.717,8.648-1.037,1.49-.403,2.702-1.272,3.816-2.735,1.115-1.464,1.656-3.314,1.656-5.66,0-2.068-.463-2.859-.605-3.052-.243-.33-.385-.429-.386-.43-.87-.193-3.388-.597-9.865-.667l-3.264,13.581ZM629.752,175.285c7.767-.165,11.356-.701,12.891-1.043,1.622-.36,2.804-1.09,3.837-2.366.978-1.209,1.455-2.853,1.455-5.021,0-1.691-.332-2.545-.527-2.782-.449-.544-.621-.573-.819-.608-1-.174-4.313-.57-13.836-.598l-3,12.418ZM357.377,66.444c-8.289,10.572-16.187,19.919-24.3,27.836,10.87-6.092,19.68-16.63,24.3-27.836ZM179.151,71.191c-5.769,0-10.11,9.817-10.11,16.183,0,5.591,2.197,5.591,4.321,5.591,6.416,0,9.404-9.655,9.404-16.182,0-5.592-2.263-5.592-3.615-5.592ZM120.907,71.191c-5.769,0-10.11,9.817-10.11,16.183,0,5.591,2.197,5.591,4.321,5.591,6.416,0,9.404-9.655,9.404-16.182,0-5.592-2.263-5.592-3.615-5.592ZM296.167,62.12c-1.474,3.581-2.343,7.276-2.553,10.991,1.971-.425,3.975-1.194,6.005-2.306-1.424-2.67-2.58-5.576-3.452-8.686ZM320.37,37.59c-1.299,3.575-2,7.528-2,11.399,0,.776.026,1.534.078,2.271,3.401-5.56,5.959-11.287,7.604-16.283-1.934.761-3.837,1.635-5.682,2.613ZM222.131,268.729c-6.937,0-13.398-1.236-19.317-3.687-1.752,1.161-3.851,1.823-6.09,1.823h-14.313c-2.862,0-5.556-1.091-7.589-3.034-1.988,1.9-4.677,3.034-7.604,3.034h-37.146c-2.536,0-4.94-.856-6.869-2.403-1.896,1.518-4.297,2.403-6.884,2.403h-39.179c-3.374,0-6.512-1.515-8.611-4.155-2.104-2.649-2.869-6.053-2.102-9.343l3.218-13.805c1.169-5.007,5.574-8.502,10.713-8.502h2.002l4.605-19.16h-26.273l-4.69,19.513c2.292.593,4.343,1.918,5.853,3.829,2.104,2.666,2.855,6.083,2.066,9.378l-3.303,13.805c-1.191,4.971-5.59,8.44-10.698,8.44H11.504c-3.374,0-6.512-1.515-8.611-4.155-2.103-2.648-2.868-6.05-2.104-9.338l3.22-13.81c1.167-5.006,5.572-8.502,10.713-8.502h1.579l16.463-68.489c-2.378-.559-4.512-1.899-6.072-3.862-2.106-2.658-2.868-6.06-2.101-9.344l3.218-13.803c1.165-5.005,5.57-8.503,10.712-8.503h39.262c3.384,0,6.529,1.523,8.629,4.179,2.106,2.672,2.857,6.087,2.068,9.381l-3.303,13.805c-1.191,4.971-5.59,8.44-10.698,8.44h-2.001l-3.18,13.231h26.273l3.247-13.506c-2.41-.548-4.575-1.896-6.152-3.881-2.106-2.658-2.868-6.06-2.101-9.344l3.218-13.803c1.165-5.005,5.57-8.503,10.712-8.503h36.891c3.129,0,6.057,1.304,8.14,3.601,2.026-2.239,4.948-3.601,8.155-3.601h35.787c3.373,0,6.512,1.515,8.611,4.155,1.346,1.695,2.144,3.7,2.343,5.786.132-.119.265-.237.398-.355,8.616-7.597,19.569-11.449,32.555-11.449,7.347,0,14.035,1.389,20.002,4.145,1.875-1.437,4.205-2.281,6.675-2.281h14.228c3.379,0,6.521,1.519,8.62,4.167,2.094,2.628,2.862,6.037,2.093,9.333l-7.453,31.93c-1.174,5.008-5.578,8.499-10.712,8.499h-14.228c-3.375,0-6.514-1.516-8.614-4.158-2.116-2.685-2.869-6.092-2.089-9.38l.821-3.479c-.75-.592-1.591-1.137-2.522-1.632-2.411-1.28-4.878-1.931-7.328-1.931-2.893,0-5.107.658-6.768,2.014-.966.787-1.457,1.532-1.457,3.416,0,.801.144,2.059,1.383,3.726.73.982,3.278,3.832,11.194,9.124,7.598,5.036,13.069,9.073,16.692,12.32,4.245,3.806,7.71,8.465,10.301,13.848,2.685,5.575,4.046,11.844,4.046,18.628,0,13.465-5.126,24.96-14.824,33.243-9.327,7.964-21.204,12.002-35.303,12.002ZM122.075,231.354c1.584.372,3.06,1.092,4.331,2.11,1.896-1.518,4.297-2.403,6.884-2.403h.647l16.568-68.927c-1.583-.608-3.014-1.583-4.181-2.869-1.948,2.151-4.723,3.493-7.785,3.594l-16.463,68.495ZM213.972,230.33c2.923,1.987,6.192,2.933,10.022,2.933,3.419,0,6.093-.866,8.175-2.648,1.946-1.666,2.336-2.979,2.336-4.56,0-1.862-.488-3.276-1.583-4.584-.939-1.121-4.182-4.434-13.953-10.924-9.907-6.685-16.724-12.964-20.9-19.239-4.539-6.821-6.84-14.74-6.84-23.537,0-1.69.086-3.35.256-4.974-.406.045-.818.068-1.235.068h-.215l-16.436,68.655c1.021.305,1.989.756,2.877,1.341l2.759-11.843c1.165-5.007,5.57-8.505,10.713-8.505h14.312c3.373,0,6.511,1.515,8.61,4.155,2.099,2.631,2.869,6.036,2.105,9.33l-1.004,4.331ZM1050.41,266.866c-3.382,0-6.526-1.521-8.625-4.173-2.11-2.667-2.865-6.09-2.071-9.394l4.739-19.886c1.009-4.251,4.373-7.41,8.526-8.237-.045-.771-.009-1.554.112-2.334l7.755-50.113,8.212-37.05c1.104-4.992,5.62-8.619,10.739-8.619h16.395c3.354,0,6.481,1.5,8.58,4.116,2.099,2.612,2.887,5.994,2.157,9.272l-7.615,34.348s-16.379,52.992-16.38,52.998c.449.407.869.854,1.253,1.34,2.112,2.671,2.866,6.093,2.073,9.396l-4.739,19.886c-1.188,4.977-5.587,8.45-10.7,8.45h-20.411ZM946.049,119.554c-1.645,0-3.299-.378-4.782-1.094-.655-.318-2.4-.318-3.337-.318h-25.629c-3.747,0-7.199-1.878-9.235-5.023-1.15-1.781-1.746-3.807-1.769-5.847-6.031,7.382-15.854,11.577-25.213,11.577-5.562,0-10.487-.704-15.148-2.189-1.641.953-3.538,1.482-5.536,1.482h-19.628c-2.902,0-5.628-1.127-7.655-3.097-2.006,1.952-4.727,3.097-7.665,3.097h-17.227c-.511,0-1.017-.035-1.514-.104-.498.068-1.005.104-1.52.104h-19.345c-3.057,0-5.918-1.25-7.974-3.419-2.032,2.147-4.886,3.419-7.982,3.419h-18.639c-3.751,0-7.206-1.881-9.24-5.032-2.033-3.149-2.328-7.066-.791-10.481l1.272-2.826c1.233-2.742,3.495-4.816,6.257-5.82l5.111-24.16c-.964-.693-1.821-1.546-2.526-2.535-2.184-3.049-2.66-6.969-1.261-10.47l1.555-3.887c1.679-4.2,5.688-6.915,10.213-6.915h18.78c3.208,0,6.187,1.368,8.256,3.728,2.044-2.334,5.022-3.728,8.265-3.728h18.78c3.796,0,7.273,1.916,9.3,5.126,2.024,3.199,2.264,7.16.638,10.589l-1.343,2.828c-1.264,2.669-3.53,4.686-6.264,5.651l-3.713,17.605,18.888-21.452c-.86-.83-1.59-1.806-2.155-2.902-1.542-3.001-1.632-6.48-.248-9.552l.633-1.406c1.773-3.941,5.711-6.487,10.032-6.487h13.768c5.974,0,10.908,4.859,10.999,10.833l.006.397c6.079-7.658,16.356-11.937,26.412-11.937,4.779,0,10.516.942,15.348,2.521,4.412,1.438,7.364,5.433,7.573,9.927.096-.321.208-.64.334-.954l1.549-3.872c1.679-4.2,5.688-6.915,10.213-6.915h20.898c3.796,0,7.273,1.916,9.3,5.126,2.024,3.207,2.262,7.165.638,10.589l-1.344,2.828c-1.589,3.355-4.822,5.7-8.497,6.187l-3.555,16.797c.32-.45.645-.93.972-1.439,1.458-2.274,3.647-3.891,6.155-4.625,3.375-18.206,20.146-36.168,41.797-36.168,9.985,0,18.604,4.097,24.285,10.753,6.166-6.915,15.89-10.753,25.416-10.753,3.966,0,8.594.649,12.816,1.772.578-.473,1.205-.889,1.873-1.236,1.554-.811,3.313-1.242,5.078-1.242,1.171,0,2.329.186,3.44.553,2.229.729,3.519.859,6.02.859h21.534c2.27,0,3.918-.154,7.149-1.029.937-.254,1.905-.383,2.876-.383,2.634,0,5.184.946,7.18,2.666,2.771,2.391,4.17,5.981,3.746,9.611l-1.765,15.108c-.646,5.542-5.343,9.724-10.926,9.724h-1.765c-2.909,0-5.617-1.165-7.619-3.087l-3.158,14.932c1.49.796,2.798,1.934,3.8,3.349,2.165,3.047,2.629,6.957,1.231,10.444l-1.551,3.877c-1.679,4.2-5.688,6.915-10.213,6.915h-21.463c-3.747,0-7.199-1.878-9.235-5.023-.224-.346-.426-.701-.608-1.064-5.774,4.383-13.137,6.795-20.232,6.795-7.56,0-13.942-1.301-20.085-4.094-1.821-.827-3.334-2.111-4.437-3.676-6.767,4.878-14.938,7.77-23.626,7.77-8.82,0-16.497-2.896-22.138-7.834l-.551,1.449c-1.089,2.873-3.36,5.179-6.228,6.315-1.294.514-2.659.774-4.053.774ZM773.175,94.562c.59.456,1.136.975,1.628,1.549.681-.606,1.436-1.127,2.245-1.549h-3.873ZM904.528,80.827c1.588,2.742,2.607,6.058,2.607,10.076,0,1.669-.151,3.277-.437,4.819.911-.729,1.936-1.311,3.043-1.72l5.153-24.192c-.954-.688-1.803-1.533-2.503-2.513-1.141-1.597-1.816-3.422-2.005-5.297l-1.668,11.678c-.417,2.916-1.98,5.443-4.191,7.148ZM986.997,71.191c-5.769,0-10.11,9.817-10.11,16.183,0,5.591,2.196,5.591,4.321,5.591,6.416,0,9.404-9.655,9.404-16.182,0-5.592-2.263-5.592-3.615-5.592ZM1056.091,81.71c.713,1.396,1.28,2.931,1.648,4.619l1.064-5.003c-.873.237-1.783.368-2.712.384ZM783.184,69.03c-.44-.4-.851-.839-1.225-1.312-.501.488-1.047.928-1.631,1.312h2.856ZM721.473,119.554c-1.645,0-3.299-.378-4.782-1.094-.655-.318-2.4-.318-3.337-.318h-30.43c-1.129,0-2.232-.171-3.277-.495-1.044.323-2.149.495-3.287.495h-19.345c-3.057,0-5.918-1.25-7.974-3.419-2.032,2.148-4.886,3.419-7.982,3.419h-18.639c-3.747,0-7.199-1.878-9.235-5.023-2.04-3.158-2.334-7.079-.793-10.497l1.267-2.816c1.239-2.748,3.499-4.82,6.258-5.822l5.111-24.161c-.964-.693-1.82-1.546-2.525-2.535-2.184-3.049-2.66-6.969-1.261-10.47l1.555-3.887c1.679-4.2,5.688-6.915,10.213-6.915h18.78c3.208,0,6.187,1.368,8.257,3.729,2.045-2.335,5.022-3.729,8.264-3.729h18.78c1.106,0,2.186.163,3.21.473,1.022-.309,2.102-.473,3.213-.473h28.1c2.769,0,4.747-.26,6.614-.869,1.095-.358,2.248-.543,3.412-.543,2.535,0,5.01.885,6.971,2.491,2.91,2.378,4.392,6.039,3.955,9.785l-1.765,15.109c-.589,5.062-4.56,8.99-9.499,9.632,2.208.752,4.151,2.197,5.511,4.169,2.055,2.98,2.512,6.777,1.224,10.159l-6.282,16.516c-1.088,2.87-3.356,5.175-6.221,6.313-1.312.518-2.672.776-4.061.776ZM649.344,94.562c.59.456,1.136.975,1.627,1.549.682-.606,1.436-1.127,2.245-1.549h-3.873ZM659.352,69.03c-.44-.4-.851-.839-1.225-1.312-.501.488-1.047.928-1.631,1.312h2.856Z" fill="#fff2e3" stroke="#000" stroke-miterlimit="10"/>
    <path d="M201.113,103.907l-1.271,2.824c-.139.31-.112.668.072.953s.5.457.84.457h18.639c.409,0,.777-.249.929-.629l1.553-3.883c.126-.316.083-.676-.116-.953-.188-.264-.492-.418-.813-.418-.018,0-5.531.287-5.531.287l3.448-16.361h3.989l7.425,15.874c2.792,5.983,9.806,6.79,16.298,6.79.379,0,.725-.214.895-.553l.706-1.412c.125-.251.14-.542.04-.804-.1-.262-.305-.47-.565-.573-5.568-2.213-7.723-4.884-9.56-8.743l-5.73-12.296c8.18-1.64,16.202-7.876,16.202-16.157,0-7.47-7.293-12.296-18.58-12.296h-18.639c-.409,0-.777.249-.929.629l-1.553,3.883c-.126.316-.083.676.116.953.188.264.491.418.813.418.018,0,5.53-.287,5.53-.287l-7.921,37.493c-.517,2.508-1.438,3.629-3.194,3.872l-2.33.353c-.336.051-.623.27-.762.579ZM224.829,81.36h-4.91l4.168-19.816h5.26c5.784,0,9.237,2.741,9.237,7.332,0,6.137-5.146,12.484-13.756,12.484ZM595.522,97.882c3.535,0,5.73,1.979,5.73,5.166,0,5.302-5.278,12.582-13.133,18.114-.173.122-.375.183-.576.183-.214,0-.429-.068-.607-.206l-1.2-.918c-.231-.176-.374-.444-.391-.734-.018-.29.092-.573.301-.776,5.879-5.724,6.757-8.996,6.757-10.438,0-1.07-.866-1.55-2.089-2.11-.823-.377-1.95-.893-1.701-2.054.688-3.098,3.281-6.226,6.908-6.226ZM1096.972,137.435c.19.236.262.547.196.843l-7.528,33.956-16.255,52.592c-.13.419-.517.705-.956.705h-8.469c-.292,0-.569-.128-.759-.35-.19-.221-.274-.515-.229-.804l7.707-49.799,8.143-36.734c.101-.457.507-.783.976-.783h16.395c.303,0,.59.138.78.374ZM686.449,102.976c.997-.147,2.391-.659,2.98-3.387l8.06-37.979s-5.512.287-5.529.287c-.322,0-.625-.154-.813-.418-.199-.277-.242-.637-.116-.953l1.553-3.883c.152-.38.52-.629.929-.629h28.1c3.831,0,6.827-.42,9.715-1.362.102-.033.206-.05.31-.05.228,0,.452.078.633.227.264.216.399.551.36.89l-1.765,15.109c-.059.504-.486.884-.993.884h-1.765c-.472,0-.879-.33-.978-.791-.112-.524-.215-1.032-.315-1.522-1.101-5.393-1.603-7.854-7.391-7.854h-13.168l-3.603,17.062h6.745c6.047,0,7.533-1.132,9.351-7.126.128-.422.517-.71.957-.71h1.765c.301,0,.586.136.776.37.19.233.264.54.202.835l-3.883,18.498c-.097.463-.505.795-.979.795h-1.765c-.281,0-.548-.118-.738-.325-.189-.206-.283-.483-.258-.763.239-2.697.057-4.103-.629-4.853-.764-.834-2.431-1.19-5.576-1.19h-7.167l-3.886,18.475h15.219c5.24,0,8.381-4.904,12.357-11.112.184-.287.505-.467.846-.467h1.765c.329,0,.637.162.823.433s.229.615.111.923l-6.283,16.521c-.1.263-.305.471-.566.574-.119.047-.244.07-.369.07-.15,0-.3-.034-.438-.101-2.49-1.211-5.055-1.312-7.682-1.312h-30.43c-.339,0-.655-.172-.84-.457-.184-.285-.211-.644-.072-.953l1.271-2.824c.14-.312.429-.529.767-.579l2.4-.353ZM1076.348,235.344c.19.24.259.555.188.852l-4.743,19.902c-.107.45-.51.769-.973.769h-20.411c-.306,0-.595-.141-.785-.38-.19-.24-.259-.555-.188-.852l4.743-19.902c.107-.45.51-.769.973-.769h20.411c.306,0,.595.141.785.38ZM394.373,62.057c-.301,0-.54-.067-.671-.188-.171-.158-.208-.461-.208-.688,0-.431-.276-.813-.685-.949-.104-.034-.209-.051-.315-.051-.31,0-.609.145-.802.402-3.778,5.067-5.971,7.931-7.905,10.457-1.671,2.182-3.115,4.067-5.097,6.753l-.863,1.129c-7.263,9.493-14.123,18.46-14.123,24.019,0,3.407,2.073,5.88,4.93,5.88,3.08,0,8.479-3.299,14.868-9.001-.372,1.14-.548,2.162-.548,3.121,0,3.407,2.073,5.88,4.93,5.88,6.661,0,22.578-14.842,31.315-27.131.025-.034.047-.07.067-.108,8.214-10.43,12.553-14.791,14.252-16.103-.222,4.242-6.467,13.422-15.05,26.04-3.056,4.492-6.519,9.584-10.129,15.072-.245.372-.214.86.075,1.199l.81.949c.197.23.478.351.761.351.198,0,.398-.059.572-.18.353-.247,1.535-.502,2.903-.502,1.021,0,1.666.141,1.938.246.087.283.298.521.587.636.12.048.245.07.369.07.308,0,.608-.143.801-.401,1.769-2.366,4.151-5.858,6.909-9.902,8.055-11.81,20.218-29.643,27.293-33.573.606-.243,1.53-.453,2.008-.453.799,0,.9.101.9.9,0,2.517-3.054,7.964-7.791,13.889-6.971,9.017-13.229,17.569-13.229,23.121,0,3.407,2.074,5.88,4.93,5.88,4.909,0,13.323-8.118,18.362-13.503-.434,1.757-.652,3.399-.652,4.913,0,2.464,1.105,8.859,6.15,8.859,7.312,0,19.457-7.833,28.585-16.107-.826,2.627-1.255,5.084-1.255,7.248,0,4.087,1.611,8.859,6.15,8.859,3.268,0,9.192-4.417,14.672-9.483-.425,1.252-.622,2.334-.622,3.334,0,3.407,2.073,5.88,4.93,5.88,6.661,0,22.578-14.842,31.315-27.131.025-.034.047-.07.067-.108,8.197-10.409,12.535-14.774,14.242-16.095-.23,4.256-6.495,13.465-15.104,26.118-3.04,4.469-6.485,9.532-10.075,14.986-.246.374-.214.865.079,1.203l.82.949c.197.228.476.347.757.347.199,0,.4-.06.575-.182.349-.246,1.526-.5,2.893-.5,1.028,0,1.675.143,1.947.249.088.283.3.521.59.634.119.047.242.069.364.069.309,0,.609-.144.802-.401,1.757-2.354,4.124-5.825,6.864-9.844,8.066-11.83,20.247-29.693,27.327-33.631.625-.248,1.531-.454,2.008-.454.799,0,.9.101.9.9,0,2.533-3.054,7.979-7.792,13.889-6.966,9.022-13.219,17.58-13.219,23.121,0,3.407,2.074,5.88,4.93,5.88,6.646,0,21.434-15.755,29.554-27.129.218-.305.247-.706.075-1.039s-.515-.542-.889-.542h-2.44c-.321,0-.623.154-.811.415-8.945,12.396-19.587,22.281-24.324,24.096,1.446-2.748,6.268-9.019,10.956-15.115,1.286-1.673,2.627-3.417,4.004-5.222,4.344-5.886,6.835-11.635,6.835-15.773,0-4.353-3.1-7.511-7.37-7.511-1.546,0-2.914.389-4.237,1.186-2.302,1.151-5.013,3.396-8.551,7.109.065-.459.098-.905.098-1.334,0-4.229-2.363-6.961-6.02-6.961-.582,0-.966,0-1.462.16-2.838.707-8.947,7.129-18.159,19.09-.118.07-.223.165-.305.28-7.864,11.052-20.737,22.282-26.113,24.126,1.427-2.808,6.427-9.41,11.287-15.827,1.107-1.462,2.256-2.979,3.44-4.551,2.141-2.946,4.525-6.111,6.833-9.172,3.573-4.741,7.268-9.645,10.391-14.167.211-.306.235-.704.062-1.033-.172-.329-.514-.535-.885-.535h-1.76c-.3,0-.585.135-.774.367-1.244,1.524-2.948,2.321-3.987,2.322-.302,0-.54-.066-.672-.188-.17-.157-.207-.458-.207-.683,0-.43-.275-.812-.682-.948-.104-.035-.212-.052-.318-.052-.308,0-.605.143-.798.397l-5.138,6.812c-.293-3.8-3.001-6.129-7.214-6.129-11.234,0-21.959,9.894-28.307,19.226-.056.049-.107.104-.151.166-8.259,11.352-26.475,24.278-34.515,24.523-.004-.058-.007-.128-.007-.215,0-7.645,21.773-40.34,30.72-40.34,1.831,0,1.98.711,1.98,1.569,0,2.983-1.622,4.561-4.69,4.561-1.825,0-3.31,1.422-3.31,3.17v.13c0,.067.007.135.021.201.327,1.587,1.494,2.496,3.202,2.496.293,0,.607-.027.933-.081,4.573-.766,8.155-5.068,8.155-9.796,0-3.679-2.528-6.15-6.29-6.15-11.229,0-22.632,10.493-29.069,19.579-.08.061-.152.133-.212.216-8.937,12.396-19.58,22.284-24.323,24.097,1.437-2.727,6.198-8.922,10.828-14.946,1.326-1.725,2.71-3.526,4.13-5.391,4.351-5.881,6.846-11.63,6.846-15.774,0-4.353-3.099-7.511-7.37-7.511-1.542,0-2.912.388-4.249,1.187-2.291,1.149-5,3.395-8.55,7.115.066-.461.099-.909.099-1.341,0-4.229-2.359-6.961-6.01-6.961-.569,0-.979,0-1.462.16-2.851.71-8.957,7.128-18.15,19.08-.125.07-.236.169-.322.29-7.888,11.071-20.761,22.303-26.116,24.131,1.424-2.805,6.425-9.408,11.285-15.827,1.109-1.464,2.259-2.982,3.444-4.556,2.148-2.957,4.544-6.134,6.861-9.205,3.568-4.73,7.257-9.621,10.373-14.134.211-.306.235-.704.063-1.033-.173-.329-.514-.535-.886-.535h-1.77c-.3,0-.585.135-.774.367-1.244,1.524-2.948,2.321-3.987,2.322-.302,0-.54-.066-.672-.188-.17-.157-.207-.458-.207-.683,0-.431-.276-.813-.685-.949-.104-.034-.209-.051-.315-.051-.31,0-.609.144-.801.401-3.748,5.022-6.028,7.999-7.86,10.39-1.686,2.201-3.142,4.102-5.147,6.818l-.413.549c-1.458,1.941-2.965,3.949-4.443,5.79-8.441,10.355-18.784,18.897-23.312,20.508,1.423-2.796,6.39-9.353,11.217-15.726,1.129-1.491,2.301-3.038,3.509-4.643,2.157-2.969,4.562-6.158,6.887-9.243,3.556-4.717,7.233-9.595,10.347-14.095.212-.307.236-.704.063-1.033-.173-.33-.514-.536-.886-.536h-1.77c-.3,0-.583.135-.773.366-1.246,1.521-2.95,2.318-3.988,2.318ZM528.545,68.102c0,9.605-26.945,36.349-32.834,37.073-.004-.055-.006-.122-.006-.203,0-2.992,2.646-9.235,6.912-16.303,3.917-6.649,9.025-13.311,13.676-17.83,3.144-3.145,7.107-5.258,9.863-5.258,1.765,0,2.39.659,2.39,2.521ZM621.579,107.685c-.184-.285-.211-.644-.072-.953l1.271-2.824c.14-.31.427-.528.763-.579l2.33-.353c1.506-.242,2.505-.912,3.128-3.613l7.987-37.752s-5.513.287-5.53.287c-.322,0-.625-.154-.813-.418-.199-.277-.242-.637-.116-.953l1.553-3.883c.152-.38.52-.629.929-.629h18.78c.343,0,.662.176.845.466s.205.653.058.963l-1.341,2.824c-.143.301-.425.511-.754.561l-2.33.353c-1.552.241-2.643.965-3.268,3.814l-2.989,14.035h26.618l3.66-17.42s-5.514.287-5.532.287c-.322,0-.625-.154-.813-.418-.199-.277-.242-.637-.116-.953l1.553-3.883c.152-.38.52-.629.929-.629h18.78c.343,0,.662.176.845.466s.205.653.058.963l-1.341,2.824c-.143.301-.425.511-.754.561l-2.33.353c-1.552.241-2.642.965-3.268,3.814l-7.919,37.551s5.513-.287,5.531-.287c.321,0,.625.154.813.418.199.277.242.637.116.953l-1.553,3.883c-.152.38-.52.629-.929.629h-19.345c-.339,0-.655-.172-.84-.457-.184-.285-.211-.644-.072-.953l1.271-2.824c.145-.321.447-.543.797-.583l3.036-.353c1.209-.121,2.409-.641,3.095-3.609l3.129-14.801h-26.549l-3.8,17.984s5.513-.287,5.53-.287c.322,0,.625.154.813.418.199.277.242.637.116.953l-1.553,3.883c-.152.38-.52.629-.929.629h-18.639c-.339,0-.655-.172-.84-.457ZM745.411,107.685c-.184-.285-.211-.644-.072-.953l1.271-2.824c.139-.31.426-.528.762-.579l2.33-.353c1.506-.242,2.505-.912,3.129-3.613l7.987-37.752s-5.513.287-5.53.287c-.322,0-.625-.154-.813-.418-.199-.277-.242-.637-.116-.953l1.553-3.883c.152-.38.52-.629.929-.629h18.78c.343,0,.662.176.845.466s.205.653.058.963l-1.341,2.824c-.143.301-.425.511-.754.561l-2.33.353c-1.552.241-2.643.965-3.268,3.814l-2.989,14.035h26.618l3.66-17.42s-5.515.287-5.532.287c-.322,0-.625-.154-.813-.418-.198-.277-.242-.637-.115-.953l1.553-3.883c.152-.38.52-.629.929-.629h18.78c.343,0,.662.176.845.466.184.29.205.653.058.963l-1.341,2.824c-.143.301-.425.511-.754.561l-2.33.353c-1.552.241-2.642.965-3.267,3.814l-7.92,37.551s5.514-.287,5.531-.287c.322,0,.625.154.813.418.199.277.242.637.116.953l-1.553,3.883c-.152.38-.52.629-.929.629h-19.345c-.339,0-.655-.172-.84-.457-.184-.285-.211-.644-.072-.953l1.271-2.824c.145-.321.447-.543.797-.583l3.036-.353c1.21-.121,2.409-.641,3.094-3.609l3.13-14.801h-26.55l-3.799,17.984s5.513-.287,5.53-.287c.321,0,.625.154.813.418.199.277.242.637.116.953l-1.553,3.883c-.152.38-.52.629-.929.629h-18.639c-.339,0-.656-.172-.84-.457ZM979.019,108.849c17.189,0,31.712-15.008,31.712-32.771,0-12.034-9.031-20.769-21.475-20.769-18.257,0-32.418,17.616-32.418,32.771,0,12.229,9.121,20.77,22.181,20.77ZM986.997,61.191c8.398,0,13.615,5.975,13.615,15.592,0,12.692-6.801,26.182-19.404,26.182-8.967,0-14.321-5.828-14.321-15.591,0-10.701,7.162-26.183,20.11-26.183ZM859.555,104.651l1.271-14.049c.047-.516.479-.91.996-.91h1.765c.49,0,.908.355.987.839,1.368,8.366,5.525,12.434,12.71,12.434,5.651,0,11.497-3.297,11.497-8.813,0-3.335-3.962-5.798-10.355-8.69-7.288-3.271-12.449-6.071-12.449-12.349,0-11.145,11.134-17.804,21.898-17.804,3.725,0,8.416.776,12.242,2.026.461.15.748.61.679,1.092l-1.977,13.838c-.07.492-.492.858-.99.858h-1.836c-.499,0-.921-.368-.99-.862-1.197-8.586-3.651-11.069-10.941-11.069-6.493,0-10.084,5.003-10.084,8.461,0,3.646,4.515,5.809,10.893,8.467,6.464,2.711,12.265,5.729,12.265,12.784,0,10.734-10.885,17.945-21.051,17.945-6.166,0-11.083-.986-15.947-3.197-.387-.176-.62-.577-.582-1ZM911.461,107.685c-.184-.285-.211-.644-.072-.953l1.271-2.824c.14-.31.427-.528.762-.579l2.331-.353c1.714-.251,2.569-1.239,3.054-3.524l8.06-37.841s-5.511.287-5.528.287c-.322,0-.625-.154-.813-.418-.198-.277-.242-.637-.115-.953l1.553-3.883c.152-.38.52-.629.928-.629h20.898c.343,0,.662.176.845.466s.205.653.058.963l-1.341,2.824c-.151.318-.458.533-.808.566l-3.671.353c-2.334.239-3.455,1.306-3.989,3.804l-7.963,37.622h9.739c3.557,0,8.808-4.468,13.066-11.118.184-.287.501-.461.842-.461h1.765c.329,0,.637.162.823.433s.229.615.111.923l-6.284,16.521c-.1.263-.305.471-.566.574-.118.047-.244.07-.368.07-.15,0-.3-.034-.438-.101-2.49-1.211-5.054-1.312-7.682-1.312h-25.629c-.339,0-.655-.172-.84-.457ZM808.432,102.969l-4.024.353c-.361.031-.676.256-.825.586l-1.271,2.824c-.139.31-.112.668.072.953.185.285.5.457.84.457h17.227c.409,0,.777-.249.929-.629l1.553-3.883c.126-.316.083-.677-.116-.954-.188-.263-.491-.417-.812-.417-.018,0-4.247.228-4.247.228l7.311-8.323h18.608l.061,6.061c0,1.085-.476,2.261-3.996,2.749l-2.824.353c-.346.043-.645.264-.788.582l-1.271,2.824c-.14.31-.112.668.072.953.185.285.5.457.84.457h19.628c.409,0,.776-.249.928-.629l1.553-3.883c.127-.317.083-.679-.118-.957-.188-.261-.491-.414-.81-.414-.021,0-4.806.292-4.806.292l-.69-45.552c-.008-.546-.454-.984-1-.984h-13.768c-.394,0-.75.23-.912.59l-.635,1.412c-.125.277-.117.597.023.868.139.271.395.463.693.522,5.27,1.054,6.66,3.324,7.165,5.51l-29.819,33.869c-.456.52-.855.992-1.217,1.418-1.693,1.999-2.289,2.638-3.555,2.765ZM829.861,88.633l13.553-15.441.172,15.441h-13.725ZM1100.737,55.719l-1.765,15.109c-.059.504-.486.884-.993.884h-1.765c-.472,0-.879-.33-.978-.791-1.424-6.67-2.166-9.377-6.294-9.377h-6.956l-8.673,41.014s6.931-.299,6.945-.299c.323,0,.628.156.816.422.196.276.239.635.113.949l-1.553,3.883c-.152.38-.52.629-.929.629h-21.463c-.339,0-.655-.172-.84-.457-.184-.285-.211-.644-.072-.953l1.271-2.824c.149-.332.467-.557.829-.586l3.389-.281c1.866-.161,2.834-1.182,3.341-3.522l8.074-37.974h-5.825c-4.452,0-6.588,3.337-10.466,9.395l-.2.312c-.184.287-.501.461-.842.461h-1.765c-.317,0-.615-.15-.803-.404-.188-.255-.246-.583-.154-.887l4.589-15.109c.078-.257.257-.472.495-.596.144-.075.303-.113.462-.113.104,0,.209.017.311.05,3.504,1.146,5.919,1.362,9.15,1.362h21.534c2.965,0,5.513-.226,9.764-1.377.086-.023.174-.035.262-.035.237,0,.469.084.653.242.251.217.379.544.34.874ZM41.693,108.142h20.051c.409,0,.777-.249.929-.629l1.553-3.883c.126-.314.083-.673-.113-.949-.188-.266-.493-.422-.816-.422-.014,0-6.941.299-6.941.299l3.231-15.102h8.299c12.444,0,22.957-8.735,22.957-19.074,0-7.629-6.93-12.367-18.085-12.367h-20.475c-.409,0-.777.249-.929.629l-1.553,3.883c-.126.316-.083.676.116.953.188.264.492.418.813.418.018,0,5.528-.287,5.528-.287l-7.919,37.21c-.561,2.722-1.462,3.925-3.12,4.155l-2.4.353c-.337.05-.626.268-.766.579l-1.271,2.824c-.139.31-.112.668.072.953.185.285.5.457.84.457ZM71.841,61.544c5.567,0,9.025,2.972,9.025,7.756,0,6.242-5.286,12.979-13.826,12.979h-6.392l4.379-20.734h6.814ZM758.127,205.049c-2.717-4.099-6.282-7.252-10.623-9.404,7.329-2.087,13.118-5.547,17.236-10.308,4.657-5.385,7.019-12.059,7.019-19.836,0-6.746-1.838-12.551-5.464-17.253-3.63-4.707-8.315-7.792-13.926-9.169-5.466-1.339-13.822-2.019-24.836-2.019h-28.93c-.463,0-.865.317-.973.768l-3.303,13.805c-.071.298-.002.611.188.852s.479.381.785.381h10.08l-21.2,88.196h-9.036c-.465,0-.868.32-.974.772l-3.218,13.805c-.069.298,0,.61.19.85.189.238.478.378.783.378h36.163c10.618,0,18.719-.417,24.077-1.24,5.438-.834,10.459-2.601,14.925-5.252,4.506-2.675,8.331-6.715,11.367-12.008,3.039-5.296,4.579-10.948,4.579-16.801,0-6.042-1.651-11.599-4.909-16.517ZM741.715,230.464c-1.682,3.235-3.807,5.653-6.317,7.187-2.544,1.556-5.214,2.521-7.937,2.868-2.821.36-8.186.543-15.945.543h-8.126l9.166-38.822h5.338c7.447,0,12.772.335,15.826.995,2.873.62,5.37,2.356,7.423,5.16,2.073,2.833,3.125,6.552,3.125,11.054,0,4.051-.859,7.757-2.553,11.016ZM750.779,158.047c1.692,2.3,2.55,5.32,2.55,8.978,0,4.553-1.245,8.494-3.699,11.717-2.451,3.22-5.533,5.35-9.16,6.331-3.756,1.017-9.824,1.532-18.036,1.532h-5.95l8.11-33.739h5.865c6.604,0,11.315.306,14.002.907,2.554.573,4.621,1.972,6.317,4.274ZM855.023,207.395l-11.26,48.697c-.104.453-.509.774-.974.774h-81.671c-.305,0-.594-.14-.783-.378-.19-.239-.26-.552-.191-.85l3.218-13.805c.105-.452.509-.772.974-.772h10.899l21.2-88.196h-11.096c-.305,0-.594-.14-.783-.378-.19-.239-.26-.552-.19-.849l3.218-13.805c.105-.453.509-.773.974-.773h41.973c.306,0,.596.141.785.381s.259.554.188.852l-3.303,13.805c-.108.45-.51.768-.973.768h-11.577l-21.199,88.196h36.759l7.951-34.119c.105-.453.509-.773.974-.773h13.914c.305,0,.593.139.783.378.189.238.26.551.191.848ZM279.064,137.439c.19.238.26.552.191.849l-7.453,31.929c-.106.452-.509.772-.974.772h-14.228c-.306,0-.594-.14-.784-.379-.189-.24-.259-.554-.189-.851l2.019-8.561c-2.087-3.122-5.031-5.708-8.756-7.688-3.873-2.058-7.918-3.102-12.022-3.102-5.215,0-9.619,1.435-13.088,4.264-3.457,2.819-5.137,6.472-5.137,11.166,0,3.435,1.13,6.696,3.359,9.693,2.292,3.084,6.888,6.942,13.661,11.47,7.124,4.722,12.365,8.576,15.575,11.453,3.266,2.928,5.945,6.541,7.964,10.737,2.029,4.214,3.057,9.022,3.057,14.292,0,10.599-3.808,19.225-11.318,25.639-7.464,6.374-17.157,9.606-28.809,9.606-8.883,0-16.728-2.483-23.343-7.384l-1.09,4.744c-.104.454-.509.776-.975.776h-14.313c-.305,0-.594-.14-.783-.378-.189-.239-.26-.552-.19-.849l7.538-32.353c.105-.453.509-.773.974-.773h14.312c.305,0,.593.14.783.378.19.238.26.551.191.848l-2.338,10.081c5.7,6.266,12.796,9.442,21.098,9.442,5.824,0,10.763-1.7,14.679-5.053,3.925-3.359,5.833-7.336,5.833-12.155,0-4.198-1.318-7.9-3.917-11.004-2.692-3.213-8.104-7.531-16.087-12.834-8.626-5.82-14.717-11.354-18.108-16.449-3.428-5.151-5.166-11.206-5.166-17.997,0-9.704,3.434-17.652,10.205-23.623,6.734-5.938,15.463-8.95,25.941-8.95,9.724,0,17.893,3.006,24.311,8.939l1.391-6.292c.101-.458.507-.784.977-.784h14.228c.305,0,.594.14.783.379ZM677.381,166.093c0-5.561-1.13-10.479-3.359-14.617-2.24-4.158-5.398-7.425-9.387-9.709-3.942-2.26-7.807-3.627-11.485-4.063-3.584-.426-10.318-.643-20.017-.643h-34.329c-.465,0-.869.32-.974.773l-3.218,13.805c-.069.297,0,.609.191.849.189.238.478.378.783.378h10.079l-21.2,88.196h-9.036c-.465,0-.868.32-.974.772l-3.218,13.805c-.069.298,0,.61.19.85.189.238.478.378.783.378h38.078c.465,0,.869-.32.974-.773l3.218-13.804c.069-.298,0-.61-.191-.85-.189-.238-.478-.378-.783-.378h-9.826l9.58-39.922h15.401l12.359,54.946c.103.456.508.78.976.78h22.614c.462,0,.865-.317.973-.768l3.303-13.805c.071-.298.002-.611-.188-.852s-.479-.381-.785-.381h-11.998l-9.726-41.028c9.666-1.55,17.304-5.316,22.714-11.203,5.625-6.117,8.477-13.768,8.477-22.737ZM624.88,152.865h6.798c8.186,0,13.779.252,16.625.748,2.699.47,4.929,1.81,6.818,4.097,1.867,2.263,2.813,5.339,2.813,9.146,0,4.485-1.239,8.292-3.682,11.312-2.448,3.024-5.623,4.988-9.435,5.835-3.967.884-10.717,1.332-20.063,1.332h-7.717l7.842-32.47ZM171.219,241.439c.19.239.26.552.19.85l-3.218,13.804c-.105.453-.509.773-.974.773h-37.146c-.305,0-.594-.14-.783-.378-.19-.239-.26-.552-.191-.85l3.218-13.805c.105-.452.509-.772.974-.772h8.528l21.2-88.196h-8.555c-.305,0-.594-.14-.783-.378-.19-.239-.26-.552-.19-.849l3.218-13.805c.105-.453.509-.773.974-.773h35.787c.305,0,.594.14.783.378.19.239.26.552.19.85l-3.218,13.805c-.105.452-.509.772-.974.772h-8.104l-21.114,88.196h9.404c.305,0,.594.14.783.378ZM447.825,242.289l-3.218,13.804c-.105.453-.509.773-.974.773h-36.758c-.305,0-.594-.14-.783-.378-.189-.239-.26-.552-.19-.85l3.218-13.805c.105-.452.509-.772.974-.772h10.209l18.688-83.357-59.501,99.269c-.181.301-.506.485-.858.485h-3.58c-.5,0-.923-.369-.991-.865l-13.514-99.359-20.436,83.828h9.144c.307,0,.597.142.787.383.189.242.257.558.184.855l-3.388,13.805c-.11.447-.511.762-.971.762h-34.438c-.305,0-.594-.14-.783-.378-.19-.239-.26-.552-.19-.85l3.218-13.805c.105-.452.509-.772.974-.772h9.205l21.2-88.196h-9.487c-.305,0-.594-.14-.783-.378-.19-.239-.26-.552-.191-.849l3.218-13.805c.105-.453.509-.773.974-.773h35.271c.501,0,.925.371.991.868l10.458,78.598,47.104-78.979c.181-.302.507-.487.859-.487h36.265c.305,0,.594.14.783.378.19.239.26.552.19.85l-3.218,13.805c-.105.452-.509.772-.974.772h-9.791l-20.385,88.196h10.515c.305,0,.594.14.783.378.19.239.26.552.191.85ZM1048.912,73.123h-1.836c-.499,0-.922-.368-.99-.862-1.197-8.586-3.651-11.069-10.941-11.069-6.493,0-10.084,5.003-10.084,8.461,0,3.646,4.515,5.809,10.893,8.467,6.464,2.711,12.265,5.729,12.265,12.784,0,10.734-10.885,17.945-21.051,17.945-6.166,0-11.083-.986-15.946-3.197-.387-.176-.621-.577-.582-1l1.271-14.049c.047-.516.479-.91.996-.91h1.765c.49,0,.908.355.987.839,1.368,8.366,5.525,12.434,12.71,12.434,5.651,0,11.497-3.297,11.497-8.813,0-3.335-3.962-5.798-10.355-8.69-7.288-3.271-12.449-6.071-12.449-12.349,0-11.145,11.134-17.804,21.898-17.804,3.725,0,8.416.776,12.243,2.026.461.15.748.61.68,1.092l-1.977,13.838c-.071.492-.493.858-.99.858ZM313.343,112.561v1c17.585,0,34.338-7.226,47.172-20.345,11.573-11.83,18.482-27.147,18.482-40.974,0-7.724-2.002-14.782-5.798-20.476,6.77-6.511,12.939-10.132,17.462-10.243.753,2.104,2.683,3.656,4.688,3.656,1.786,0,3.033-1.247,3.033-3.032,0-1.356-.727-4.506-7.45-4.524-.019,0-.037-.001-.056-.001-5.612,0-13.21,3.348-21.461,9.443-6.6-6.358-16.077-9.713-27.475-9.713h-.823c-1.97-4.486-5.53-6.852-10.335-6.852-.502,0-1.023.026-1.565.081-8.212.958-15.204,6.042-19.722,14.327-21.656,10.231-34.573,27.776-34.573,46.989,0,9.129,6.208,15.504,15.098,15.504,9.085,0,18.383-4.119,26.932-11.923.779.498,1.584.893,2.314,1.25l.537.265c.144.071.296.105.447.105.354,0,.697-.189.878-.521l.813-1.49c.263-.481.088-1.086-.392-1.353-.397-.221-.766-.413-1.106-.591-.233-.121-.449-.234-.647-.343,12.869-13.336,22.467-33.729,22.467-47.942,0-1.2-.073-2.333-.214-3.34h1.247c9.593,0,17.063,3.108,21.675,9.004-7.228,6.059-15.053,14.382-23.272,24.757-20.569,26.018-37.147,43.61-56.1,50.823-7.265-1.452-14.123-2.811-19.841-2.811-5.046,0-8.998,2.464-8.998,5.608,0,2.918,3.212,4.66,8.591,4.66,7.105,0,13.512-.725,19.048-2.154,9.582,1.094,19.699,2.154,28.943,2.154l.002-1ZM368.448,36.485c1.607,3.948,2.452,8.565,2.45,13.451,0,27.055-25.616,59.73-57.426,59.73-6.044,0-12.191-.771-17.736-1.67,24.025-9.712,41.603-31.323,65.158-62.598,2.755-3.542,5.14-6.464,7.554-8.914ZM283.563,74.879c0-14.982,8.03-29.428,22.134-39.995-1.005,4.2-1.496,8.217-1.496,12.205,0,10.961,3.414,20.275,9.404,25.782-7.7,7.057-15.63,10.633-23.586,10.633-5.335,0-6.456-4.69-6.456-8.625ZM316.385,70.271c-5.176-4.516-8.015-12.028-8.015-21.282,0-6.349,1.458-12.875,4.11-18.414,7.896-4.789,16.938-7.903,25.6-8.828.083.743.147,1.531.147,2.433,0,11.485-8.332,32.2-21.841,46.092ZM331.864,14.813c2.274,0,3.893.872,4.916,2.656-6.164.556-12.344,1.859-18.131,3.815,3.511-3.691,7.658-5.89,12.144-6.412.37-.04.727-.06,1.071-.06ZM112.929,108.849c17.189,0,31.712-15.008,31.712-32.771,0-12.034-9.031-20.769-21.475-20.769-18.257,0-32.418,17.616-32.418,32.771,0,12.229,9.121,20.77,22.181,20.77ZM120.907,61.191c8.398,0,13.615,5.975,13.615,15.592,0,12.692-6.801,26.182-19.404,26.182-8.967,0-14.321-5.828-14.321-15.591,0-10.701,7.162-26.183,20.11-26.183ZM1048.548,137.439c.19.238.26.552.191.849l-7.453,31.929c-.106.452-.509.772-.974.772h-14.228c-.306,0-.594-.14-.784-.379-.189-.24-.259-.554-.189-.851l2.019-8.561c-2.087-3.122-5.03-5.708-8.756-7.688-3.873-2.058-7.918-3.102-12.022-3.102-5.215,0-9.619,1.435-13.088,4.264-3.457,2.819-5.137,6.472-5.137,11.166,0,3.436,1.13,6.696,3.359,9.693,2.292,3.084,6.888,6.942,13.661,11.47,7.124,4.722,12.365,8.576,15.575,11.453,3.266,2.929,5.945,6.541,7.964,10.737,2.029,4.214,3.057,9.022,3.057,14.292,0,10.599-3.808,19.225-11.318,25.639-7.464,6.374-17.157,9.606-28.809,9.606-8.883,0-16.728-2.483-23.343-7.384l-1.09,4.744c-.104.454-.509.776-.975.776h-14.313c-.305,0-.594-.14-.783-.378-.19-.239-.26-.552-.19-.849l7.538-32.353c.105-.453.509-.773.974-.773h14.312c.305,0,.593.14.783.378.189.238.26.551.191.848l-2.338,10.081c5.7,6.266,12.796,9.442,21.098,9.442,5.824,0,10.763-1.7,14.679-5.053,3.925-3.359,5.833-7.336,5.833-12.155,0-4.198-1.318-7.9-3.917-11.004-2.692-3.214-8.104-7.531-16.087-12.834-8.626-5.82-14.717-11.354-18.108-16.449-3.428-5.151-5.166-11.206-5.166-17.997,0-9.704,3.434-17.652,10.205-23.623,6.735-5.938,15.463-8.95,25.942-8.95,9.724,0,17.893,3.006,24.311,8.939l1.391-6.292c.101-.458.507-.784.977-.784h14.228c.305,0,.594.14.783.379ZM120.32,241.439c.189.239.26.552.19.85l-3.218,13.804c-.105.453-.509.773-.974.773h-39.179c-.305,0-.594-.14-.783-.378-.19-.239-.26-.552-.191-.85l3.218-13.805c.105-.452.509-.772.974-.772h9.883l9.413-39.16h-46.842l-9.414,39.16h9.826c.306,0,.595.141.785.381.189.24.259.554.188.852l-3.303,13.805c-.108.45-.51.768-.973.768H11.504c-.305,0-.594-.14-.783-.378-.19-.239-.26-.552-.191-.85l3.218-13.805c.105-.452.509-.772.974-.772h9.459l21.2-88.196h-10.08c-.305,0-.594-.14-.783-.378-.189-.239-.26-.552-.19-.849l3.218-13.805c.105-.453.509-.773.974-.773h39.262c.306,0,.595.141.785.381.189.24.259.554.188.852l-3.303,13.805c-.108.45-.51.768-.973.768h-9.883l-7.987,33.231h46.843l7.988-33.231h-10.164c-.305,0-.594-.14-.783-.378-.189-.239-.26-.552-.19-.849l3.218-13.805c.105-.453.509-.773.974-.773h36.891c.305,0,.594.14.783.378.19.239.26.552.191.85l-3.219,13.805c-.105.452-.509.772-.974.772h-7.512l-21.199,88.196h10.08c.305,0,.594.14.783.378ZM171.173,108.849c17.19,0,31.712-15.008,31.712-32.771,0-12.034-9.031-20.769-21.475-20.769-18.257,0-32.418,17.616-32.418,32.771,0,12.229,9.121,20.77,22.181,20.77ZM179.151,61.191c8.398,0,13.615,5.975,13.615,15.592,0,12.692-6.801,26.182-19.404,26.182-8.967,0-14.321-5.828-14.321-15.591,0-10.701,7.162-26.183,20.11-26.183ZM948.294,218.913c.19.24.259.554.189.851l-8.617,36.333c-.107.451-.51.77-.973.77h-85.644c-.305,0-.594-.14-.783-.378-.19-.239-.26-.552-.19-.85l3.218-13.805c.105-.452.509-.772.974-.772h9.968l21.2-88.196h-9.911c-.305,0-.594-.14-.783-.378-.189-.239-.26-.552-.19-.849l3.218-13.805c.105-.453.509-.773.974-.773h84.76c.306,0,.595.14.785.38s.259.554.188.852l-8.423,35.485c-.107.45-.51.769-.973.769h-13.983c-.306,0-.595-.14-.785-.38-.189-.24-.259-.554-.188-.851l4.853-20.45h-40.327l-8.21,34.163h34.981c.303,0,.59.138.78.374.189.236.262.546.197.842l-3.049,13.805c-.102.458-.507.784-.977.784h-35.731l-9.189,38.229h41.68l5.325-21.766c.109-.448.51-.763.971-.763h13.883c.306,0,.595.14.784.38ZM569.385,241.439c-.189-.238-.478-.378-.783-.378h-10.033l-10.167-88.196h11.074c.465,0,.868-.32.974-.772l3.218-13.805c.069-.298,0-.61-.19-.85-.189-.238-.478-.378-.783-.378h-57.619c-.465,0-.869.32-.974.773l-3.218,13.805c-.069.297,0,.609.19.849.189.238.478.378.783.378h11.332l-49.679,88.196h-10.256c-.465,0-.869.32-.974.772l-3.218,13.805c-.069.298,0,.61.191.85.189.238.478.378.783.378h41.902c.465,0,.869-.32.974-.773l3.218-13.804c.069-.298,0-.61-.191-.85-.189-.238-.478-.378-.783-.378h-11.129l13.448-25.44h39.978l2.333,25.44h-12.793c-.463,0-.865.317-.973.768l-3.303,13.805c-.071.298-.002.611.188.852s.479.381.785.381h41.696c.465,0,.869-.32.974-.773l3.218-13.804c.069-.298,0-.61-.191-.85ZM506.049,199.816l24.288-46.951h1.358l4.307,46.951h-29.953Z"/>
  </g>
</svg>