<?xml version="1.0" encoding="UTF-8"?>
<svg id="b" data-name="Layer 2" xmlns="http://www.w3.org/2000/svg" width="1229.17" height="208" viewBox="0 0 1229.17 208">
  <g id="c" data-name="Layer 2">
    <g>
      <g>
        <path d="M1228.5,49.62c0-2.1-1.31-3.97-3.28-4.69L1104.59.8c-.56-.2-1.14-.3-1.72-.3-.26,0-.51.02-.76.06-.25-.04-.5-.06-.76-.06-.57,0-1.15.1-1.71.3l-119.27,43.63L861.11.8c-.56-.2-1.14-.3-1.72-.3-.25,0-.5.02-.76.06-.24-.04-.5-.06-.75-.06-.58,0-1.16.1-1.72.3l-119.83,43.84L616.49.8c-.56-.2-1.14-.3-1.72-.3-.26,0-.51.02-.76.06-.25-.04-.5-.06-.76-.06-.57,0-1.16.1-1.71.3l-118.69,43.42L374.15.8c-.55-.2-1.14-.3-1.71-.3-.25,0-.51.02-.76.06-.25-.04-.51-.06-.76-.06-.58,0-1.16.1-1.72.3l-119.83,43.84L129.53.8c-.56-.2-1.14-.3-1.72-.3-.25,0-.5.02-.75.06h-.01c-.25-.04-.5-.06-.75-.06-.58,0-1.16.1-1.72.3L3.95,44.93c-1.97.72-3.28,2.59-3.28,4.69l-.17,152.87c0,1.63.78,3.15,2.11,4.09.85.61,1.87.92,2.89.92.56,0,1.12-.09,1.66-.28l119.85-42.06c.02-.01.03-.01.05-.02.02.01.03.01.05.02l119.85,42.06c.53.19,1.09.28,1.65.28.25,0,.5-.02.75-.06h.01c.25.04.51.06.76.06.55,0,1.11-.09,1.65-.28l119.85-42.06c.02-.01.03-.01.05-.02.02.01.03.01.05.02l117.68,41.3,2.17.76c.41.14.82.23,1.24.26.01,0,.03.01.05,0,.42-.03.84-.12,1.24-.26l2.17-.76,117.68-41.3c.02-.01.03-.01.05-.02.02.01.03.01.05.02l119.85,42.06c.54.19,1.1.28,1.66.28.25,0,.5-.02.75-.06h.01c.25.04.5.06.75.06.56,0,1.12-.09,1.66-.28l119.84-42.06c.02-.01.03-.01.05-.02.02.01.03.01.05.02l119.85,42.06c.54.19,1.1.28,1.66.28h.37c.55,0,1.11-.09,1.65-.28l119.85-42.06c.02-.01.03-.01.05-.02.02.01.03.01.05.02l119.85,42.06c.54.19,1.1.28,1.66.28,1.02,0,2.03-.31,2.89-.92,1.32-.94,2.11-2.46,2.11-4.09l-.17-152.87ZM310.95,98.36l.68-3.34.63,2.92-1.31.42Z" fill="#ddd" stroke="#000" stroke-linecap="round" stroke-miterlimit="10"/>
        <polygon points="5.667 48.624 5.501 201.5 125.351 159.444 126.299 4.5 5.667 48.624" fill="#ddd" stroke="#000" stroke-linecap="round" stroke-miterlimit="10"/>
        <path d="M74.902,135.819v18.528l-41.851,13.662v-18.637l10.106-3.273v-72.934l-10.106,3.17v-18.637l41.851-13.017c9.744-3.031,17.272-2.227,22.582,2.407,5.31,4.624,7.965,12.245,7.965,22.868,0,6.072-.933,11.875-2.797,17.415-1.866,5.543-4.254,10.103-7.166,13.679-2.912,3.579-6.243,6.456-9.992,8.628-3.749,2.175-8.441,4.164-14.074,5.972l-7.593,2.436v21.319l11.076-3.587ZM63.826,99.767l3.083-.981c7.08-2.253,11.637-5.292,13.674-9.118,2.036-3.823,3.055-8.097,3.055-12.821,0-3.989-.705-7.166-2.112-9.533-1.408-2.366-3.026-3.592-4.853-3.676-1.827-.083-4.815.526-8.964,1.827l-3.882,1.218v33.085Z"/>
      </g>
      <g>
        <polygon points="312.26 97.94 310.95 98.36 311.63 95.02 312.26 97.94" fill="#ddd" stroke="#000" stroke-linecap="round" stroke-miterlimit="10"/>
        <polygon points="250.29 48.624 250.124 201.5 369.974 159.444 370.922 4.5 250.29 48.624" fill="#ddd" stroke="#000" stroke-linecap="round" stroke-miterlimit="10"/>
        <path d="M354.019,123.277v18.253l-39.054,12.749v-18.354l10.163-3.291-3.768-17.429-20.612,6.62-4.225,20.072,10.62-3.439v18.375l-35.171,11.481v-18.466l9.82-3.18,15.473-77.123-10.563,3.313v-18.428l51.843-16.125v18.293l-10.677,3.349,16.672,66.401,9.478-3.069ZM318.106,100.323l-6.623-30.628-7.137,35.017,13.76-4.388Z"/>
      </g>
      <g>
        <path d="M492.82,207.48c-.12.02-.24.02-.36.02-1.03,0-2.04-.31-2.9-.92-.05-.04-.1-.07-.15-.12l2.17.76c.41.14.82.23,1.24.26Z" fill="#ddd" stroke="#000" stroke-linecap="round" stroke-miterlimit="10"/>
        <polygon points="492.622 48.624 492.457 201.5 612.306 159.444 613.255 4.5 492.622 48.624" fill="#ddd" stroke="#000" stroke-linecap="round" stroke-miterlimit="10"/>
        <path d="M559.366,119.038v-18.113l37.226-11.863c0,12.931-1.741,23.74-5.224,32.43-3.483,8.699-8.546,16.307-15.187,22.822-6.643,6.525-14.094,11.14-22.353,13.837-14.35,4.687-25.36,3.071-33.03-4.868-7.67-7.959-11.505-19.996-11.505-36.092,0-11.179,1.903-21.651,5.71-31.412,3.806-9.75,8.926-17.797,15.359-24.141,6.432-6.335,13.417-10.672,20.954-13.014,10.657-3.312,18.956-2.402,24.894,2.72v-8.765l13.474-4.191v37.91l-13.474,4.265c-1.408-5.963-4.206-10.133-8.393-12.51-4.188-2.38-8.678-2.822-13.474-1.318-6.319,1.981-11.705,6.697-16.158,14.15-4.454,7.463-6.68,16.562-6.68,27.292,0,12.279,2.264,20.901,6.795,25.861,4.529,4.952,10.049,6.371,16.558,4.263,4.796-1.553,8.773-4.406,11.933-8.561,3.159-4.149,5.347-9.216,6.566-15.198l-13.988,4.494Z"/>
      </g>
      <g>
        <polygon points="737.245 48.624 737.08 201.5 856.929 159.444 857.878 4.5 737.245 48.624" fill="#ddd" stroke="#000" stroke-linecap="round" stroke-miterlimit="10"/>
        <path d="M800.991,45.132c13.703-4.259,24.484-2.354,32.345,5.692,7.859,8.023,11.79,19.557,11.79,34.619s-3.94,29.167-11.819,42.181c-7.879,13.04-18.651,21.799-32.316,26.262-14.198,4.638-25.104,2.768-32.716-5.629-7.613-8.419-11.419-19.986-11.419-34.681,0-15.206,3.911-29.36,11.733-42.442,7.822-13.058,18.622-21.719,32.402-26.002ZM800.991,64.45c-6.091,1.91-11.258,6.577-15.502,14.008-4.245,7.439-6.366,17.061-6.366,28.86,0,10.427,2.093,18.095,6.28,22.999,4.187,4.897,9.383,6.337,15.587,4.328,6.089-1.972,11.266-6.697,15.53-14.172,4.263-7.467,6.395-16.933,6.395-28.406,0-10.259-2.037-17.93-6.109-23.017-4.074-5.094-9.345-6.629-15.816-4.6Z"/>
      </g>
      <g>
        <polygon points="980.723 48.624 980.557 201.5 1100.407 159.444 1101.355 4.5 980.723 48.624" fill="#ddd" stroke="#000" stroke-linecap="round" stroke-miterlimit="10"/>
        <path d="M997.068,173.368v-17.734l10.62-3.439v-69.393l-10.62,3.331v-17.734l33.36-10.376,29.217,55.766v-47.282l-10.335,3.241v-17.598l35.628-11.082v17.506l-11.134,3.492v86.999l-17.699,5.78-34.258-66.332v59.098l9.992-3.236v17.644l-34.771,11.351Z"/>
      </g>
      <g>
        <polygon points="248.446 48.624 248.611 201.5 128.761 159.444 127.813 4.5 248.446 48.624" stroke="#fff" stroke-linecap="round" stroke-miterlimit="10"/>
        <path d="M154.799,150.387v-20.135l11.362,3.097V54.737l-11.362-3.393v-20.135l43.621,13.317v19.845l-11.591-3.461v78.074l23.467,6.396v-36.166l15.473,4.406v55.64l-70.97-18.871Z" fill="#ddd"/>
      </g>
      <g>
        <path d="M496.28,206.46l-.15.12c-.86.61-1.87.92-2.9.92-.12,0-.24,0-.36-.02.42-.03.84-.12,1.24-.26l2.17-.76Z" fill="#ddd" stroke="#000" stroke-linecap="round" stroke-miterlimit="10"/>
        <polygon points="493.069 48.624 493.234 201.5 373.384 159.444 372.436 4.5 493.069 48.624" stroke="#fff" stroke-linecap="round" stroke-miterlimit="10"/>
        <path d="M411.929,155.098v-19.581l11.133,3.034v-31.209l-21.525-51.665-9.706-2.898v-19.714l39.739,12.132v19.45l-7.816-2.334,11.659,31.513,11.834-24.497-8.198-2.448v-19.4l34.999,10.685v19.167l-9.763-2.916-20.554,38.78v30.989l11.076,3.019v19.295l-42.878-11.401Z" fill="#ddd"/>
      </g>
      <g>
        <polygon points="735.401 48.624 735.566 201.5 615.717 159.444 614.768 4.5 735.401 48.624" stroke="#fff" stroke-linecap="round" stroke-miterlimit="10"/>
        <path d="M719.881,151.768v18.6l-24.193-6.433-17.933-53.697-9.088-2.573v30.144l9.935,2.708v18.875l-41.508-11.037v-19.151l10.905,2.972V57.406l-10.905-3.257v-19.151l47.903,14.624c9.021,2.754,15.52,7.914,19.498,15.463,3.977,7.532,5.966,15.289,5.966,23.282,0,12.548-4.587,20.394-13.76,23.565l12.904,37.035,10.277,2.801ZM668.666,89.772l7.08,2.049c8.755,2.534,13.132-.573,13.132-9.323,0-4.321-.999-7.845-2.997-10.575-1.998-2.732-4.749-4.622-8.25-5.668l-8.964-2.677v26.194Z" fill="#ddd"/>
      </g>
      <g>
        <polygon points="980.024 48.624 980.189 201.5 860.34 159.444 859.391 4.5 980.024 48.624" stroke="#fff" stroke-linecap="round" stroke-miterlimit="10"/>
        <path d="M883.845,56.776v-18.603l37.911,11.574v18.351l-7.822-2.336v49.256c0,6.579.2,11.371.6,14.379.4,3.007,1.456,5.683,3.169,8.03,1.713,2.343,3.882,3.871,6.509,4.586,2.702.735,4.948.464,6.737-.813,1.789-1.273,2.941-3.161,3.454-5.664.514-2.501.771-7.817.771-15.951v-47.48l-7.708-2.302v-18.313l31.631,9.656v18.103l-9.706-2.899v53.805c0,7.319-.285,12.562-.856,15.73-.571,3.17-1.884,6.115-3.94,8.837-2.055,2.728-5.034,4.592-8.935,5.595-3.902,1.008-8.384.844-13.446-.5-5.862-1.556-10.858-4.019-14.987-7.393-4.13-3.381-7.204-7.233-9.221-11.556-2.018-4.328-3.312-8.437-3.882-12.326-.571-3.891-.856-10.334-.856-19.328v-49.624l-9.421-2.813Z" fill="#ddd"/>
      </g>
      <g>
        <polygon points="1223.502 48.624 1223.667 201.5 1103.817 159.444 1102.869 4.5 1223.502 48.624" stroke="#fff" stroke-linecap="round" stroke-miterlimit="10"/>
        <path d="M1122.428,146.243v-18.073l12.047,3.283V60.94l-12.047-3.598v-18.073l37.626,11.487c7.917,2.417,14.292,5.004,19.127,7.759,4.833,2.75,9.458,6.983,13.874,12.689,4.415,5.693,7.955,12.591,10.62,20.696,2.664,8.088,3.997,16.572,3.997,25.461,0,7.201-.933,13.806-2.798,19.82-1.866,6.024-4.178,10.666-6.937,13.924-2.76,3.267-6.062,5.572-9.906,6.914-3.845,1.35-7.375,1.95-10.591,1.795-3.217-.152-8.193-1.124-14.931-2.915l-40.081-10.658ZM1155.086,137.071l4.967,1.354c6.014,1.639,10.781,1.907,14.302.806,3.52-1.095,6.347-3.945,8.478-8.545,2.132-4.593,3.197-11.065,3.197-19.427,0-7.961-1.076-15.033-3.226-21.223-2.151-6.199-5.063-10.901-8.736-14.103-3.674-3.208-8.346-5.661-14.017-7.354l-4.967-1.483v69.976Z" fill="#ddd"/>
      </g>
    </g>
  </g>
</svg>