<?xml version="1.0" encoding="UTF-8"?>
<svg id="b" data-name="Layer 2" xmlns="http://www.w3.org/2000/svg" width="1091.24" height="249.229" viewBox="0 0 1091.24 249.229">
  <g id="c" data-name="Layer 2">
    <g>
      <path d="M191.109,93.907l-1.271,2.824c-.139.31-.112.668.072.953s.5.457.84.457h18.639c.409,0,.777-.249.929-.629l1.553-3.883c.126-.316.083-.676-.116-.953-.188-.264-.492-.418-.813-.418-.018,0-5.531.287-5.531.287l3.448-16.361h3.989l7.425,15.874c2.792,5.983,9.806,6.79,16.298,6.79.379,0,.725-.214.895-.553l.706-1.412c.125-.251.14-.542.04-.804-.1-.262-.305-.47-.565-.573-5.568-2.213-7.723-4.884-9.56-8.743l-5.73-12.296c8.18-1.64,16.202-7.876,16.202-16.157,0-7.47-7.293-12.296-18.58-12.296h-18.639c-.409,0-.777.249-.929.629l-1.553,3.883c-.126.316-.083.676.116.953.188.264.491.418.813.418.018,0,5.53-.287,5.53-.287l-7.921,37.493c-.517,2.508-1.438,3.629-3.194,3.872l-2.33.353c-.336.051-.623.27-.762.579ZM214.825,71.36h-4.91l4.168-19.816h5.26c5.784,0,9.237,2.741,9.237,7.332,0,6.137-5.146,12.484-13.756,12.484Z" fill="#fff2e3" stroke="#000" stroke-miterlimit="10"/>
      <path d="M578.61,94.107c-.249,1.161.878,1.677,1.701,2.054,1.224.561,2.089,1.04,2.089,2.11,0,1.442-.878,4.715-6.757,10.438-.208.203-.318.486-.301.776.017.29.16.559.391.734l1.2.918c.179.138.393.206.607.206.201,0,.403-.061.576-.183,7.855-5.532,13.133-12.812,13.133-18.114,0-3.187-2.196-5.166-5.73-5.166-3.627,0-6.22,3.128-6.908,6.226Z" fill="#fff2e3" stroke="#000" stroke-miterlimit="10"/>
      <path d="M1086.188,127.061h-16.395c-.469,0-.875.326-.976.783l-8.143,36.734-7.707,49.799c-.045.289.039.583.229.804.19.222.467.35.759.35h8.469c.438,0,.826-.286.956-.705l16.255-52.592,7.528-33.956c.066-.296-.006-.606-.196-.843-.189-.236-.477-.374-.78-.374Z" fill="#fff2e3" stroke="#000" stroke-miterlimit="10"/>
      <path d="M674.045,93.328c-.337.05-.626.268-.767.579l-1.271,2.824c-.14.31-.112.668.072.953.185.285.5.457.84.457h30.43c2.627,0,5.192.101,7.682,1.312.138.066.288.101.438.101.125,0,.25-.023.369-.07.261-.104.466-.312.566-.574l6.283-16.521c.117-.308.075-.652-.111-.923s-.495-.433-.823-.433h-1.765c-.341,0-.662.18-.846.467-3.976,6.208-7.117,11.112-12.357,11.112h-15.219l3.886-18.475h7.167c3.145,0,4.812.356,5.576,1.19.686.75.868,2.155.629,4.853-.025.279.069.557.258.763.189.207.457.325.738.325h1.765c.473,0,.881-.332.979-.795l3.883-18.498c.062-.295-.012-.602-.202-.835-.19-.234-.475-.37-.776-.37h-1.765c-.44,0-.829.288-.957.71-1.818,5.994-3.304,7.126-9.351,7.126h-6.745l3.603-17.062h13.168c5.788,0,6.29,2.462,7.391,7.854.1.49.204.998.315,1.522.099.461.506.791.978.791h1.765c.507,0,.935-.38.993-.884l1.765-15.109c.04-.339-.096-.674-.36-.89-.181-.148-.406-.227-.633-.227-.104,0-.208.017-.31.05-2.888.942-5.885,1.362-9.715,1.362h-28.1c-.409,0-.777.249-.929.629l-1.553,3.883c-.126.316-.083.676.116.953.188.264.491.418.813.418.017,0,5.529-.287,5.529-.287l-8.06,37.979c-.589,2.728-1.984,3.239-2.98,3.387l-2.4.353Z" fill="#fff2e3" stroke="#000" stroke-miterlimit="10"/>
      <path d="M1065.559,224.964h-20.411c-.463,0-.866.318-.973.769l-4.743,19.902c-.071.297-.002.611.188.852.189.239.479.38.785.38h20.411c.463,0,.865-.318.973-.769l4.743-19.902c.071-.297.002-.611-.188-.852-.189-.239-.479-.38-.785-.38Z" fill="#fff2e3" stroke="#000" stroke-miterlimit="10"/>
      <path d="M384.369,52.057c-.301,0-.54-.067-.671-.188-.171-.158-.208-.461-.208-.688,0-.431-.276-.813-.685-.949-.104-.034-.209-.051-.315-.051-.31,0-.609.145-.802.402-3.778,5.067-5.971,7.931-7.905,10.457-1.671,2.182-3.115,4.067-5.097,6.753l-.863,1.129c-7.263,9.493-14.123,18.46-14.123,24.019,0,3.407,2.073,5.88,4.93,5.88,3.08,0,8.479-3.299,14.868-9.001-.372,1.14-.548,2.162-.548,3.121,0,3.407,2.073,5.88,4.93,5.88,6.661,0,22.578-14.842,31.315-27.131.025-.034.047-.07.067-.108,8.214-10.43,12.553-14.791,14.252-16.103-.222,4.242-6.467,13.422-15.05,26.04-3.056,4.492-6.519,9.584-10.129,15.072-.245.372-.214.86.075,1.199l.81.949c.197.23.478.351.761.351.198,0,.398-.059.572-.18.353-.247,1.535-.502,2.903-.502,1.021,0,1.666.141,1.938.246.087.283.298.521.587.636.12.048.245.07.369.07.308,0,.608-.143.801-.401,1.769-2.366,4.151-5.858,6.909-9.902,8.055-11.81,20.218-29.643,27.293-33.573.606-.243,1.53-.453,2.008-.453.799,0,.9.101.9.9,0,2.517-3.054,7.964-7.791,13.889-6.971,9.017-13.229,17.569-13.229,23.121,0,3.407,2.074,5.88,4.93,5.88,4.909,0,13.323-8.118,18.362-13.503-.434,1.757-.652,3.399-.652,4.913,0,2.464,1.105,8.859,6.15,8.859,7.312,0,19.457-7.833,28.585-16.107-.826,2.627-1.255,5.084-1.255,7.248,0,4.087,1.611,8.859,6.15,8.859,3.268,0,9.192-4.417,14.672-9.483-.425,1.252-.622,2.334-.622,3.334,0,3.407,2.073,5.88,4.93,5.88,6.661,0,22.578-14.842,31.315-27.131.025-.034.047-.07.067-.108,8.197-10.409,12.535-14.774,14.242-16.095-.23,4.256-6.495,13.465-15.104,26.118-3.04,4.469-6.485,9.532-10.075,14.986-.246.374-.214.865.079,1.203l.82.949c.197.228.476.347.757.347.199,0,.4-.06.575-.182.349-.246,1.526-.5,2.893-.5,1.028,0,1.675.143,1.947.249.088.283.3.521.59.634.119.047.242.069.364.069.309,0,.609-.144.802-.401,1.757-2.354,4.124-5.825,6.864-9.844,8.066-11.83,20.247-29.693,27.327-33.631.625-.248,1.531-.454,2.008-.454.799,0,.9.101.9.9,0,2.533-3.054,7.979-7.792,13.889-6.966,9.022-13.219,17.58-13.219,23.121,0,3.407,2.074,5.88,4.93,5.88,6.646,0,21.434-15.755,29.554-27.129.218-.305.247-.706.075-1.039s-.515-.542-.889-.542h-2.44c-.321,0-.623.154-.811.415-8.945,12.396-19.587,22.281-24.324,24.096,1.446-2.748,6.268-9.019,10.956-15.115,1.286-1.673,2.627-3.417,4.004-5.222,4.344-5.886,6.835-11.635,6.835-15.773,0-4.353-3.1-7.511-7.37-7.511-1.546,0-2.914.389-4.237,1.186-2.302,1.151-5.013,3.396-8.551,7.109.065-.459.098-.905.098-1.334,0-4.229-2.363-6.961-6.02-6.961-.582,0-.966,0-1.462.16-2.838.707-8.947,7.129-18.159,19.09-.118.07-.223.165-.305.28-7.864,11.052-20.737,22.282-26.113,24.126,1.427-2.808,6.427-9.41,11.287-15.827,1.107-1.462,2.256-2.979,3.44-4.551,2.141-2.946,4.525-6.111,6.833-9.172,3.573-4.741,7.268-9.645,10.391-14.167.211-.306.235-.704.062-1.033-.172-.329-.514-.535-.885-.535h-1.76c-.3,0-.585.135-.774.367-1.244,1.524-2.948,2.321-3.987,2.322-.302,0-.54-.066-.672-.188-.17-.157-.207-.458-.207-.683,0-.43-.275-.812-.682-.948-.104-.035-.212-.052-.318-.052-.308,0-.605.143-.798.397l-5.138,6.812c-.293-3.8-3.001-6.129-7.214-6.129-11.234,0-21.959,9.894-28.307,19.226-.056.049-.107.104-.151.166-8.259,11.352-26.475,24.278-34.515,24.523-.004-.058-.007-.128-.007-.215,0-7.645,21.773-40.34,30.72-40.34,1.831,0,1.98.711,1.98,1.569,0,2.983-1.622,4.561-4.69,4.561-1.825,0-3.31,1.422-3.31,3.17v.13c0,.067.007.135.021.201.327,1.587,1.494,2.496,3.202,2.496.293,0,.607-.027.933-.081,4.573-.766,8.155-5.068,8.155-9.796,0-3.679-2.528-6.15-6.29-6.15-11.229,0-22.632,10.493-29.069,19.579-.08.061-.152.133-.212.216-8.937,12.396-19.58,22.284-24.323,24.097,1.437-2.727,6.198-8.922,10.828-14.946,1.326-1.725,2.71-3.526,4.13-5.391,4.351-5.881,6.846-11.63,6.846-15.774,0-4.353-3.099-7.511-7.37-7.511-1.542,0-2.912.388-4.249,1.187-2.291,1.149-5,3.395-8.55,7.115.066-.461.099-.909.099-1.341,0-4.229-2.359-6.961-6.01-6.961-.569,0-.979,0-1.462.16-2.851.71-8.957,7.128-18.15,19.08-.125.07-.236.169-.322.29-7.888,11.071-20.761,22.303-26.116,24.131,1.424-2.805,6.425-9.408,11.285-15.827,1.109-1.464,2.259-2.982,3.444-4.556,2.148-2.957,4.544-6.134,6.861-9.205,3.568-4.73,7.257-9.621,10.373-14.134.211-.306.235-.704.063-1.033-.173-.329-.514-.535-.886-.535h-1.77c-.3,0-.585.135-.774.367-1.244,1.524-2.948,2.321-3.987,2.322-.302,0-.54-.066-.672-.188-.17-.157-.207-.458-.207-.683,0-.431-.276-.813-.685-.949-.104-.034-.209-.051-.315-.051-.31,0-.609.144-.801.401-3.748,5.022-6.028,7.999-7.86,10.39-1.686,2.201-3.142,4.102-5.147,6.818l-.413.549c-1.458,1.941-2.965,3.949-4.443,5.79-8.441,10.355-18.784,18.897-23.312,20.508,1.423-2.796,6.39-9.353,11.217-15.726,1.129-1.491,2.301-3.038,3.509-4.643,2.157-2.969,4.562-6.158,6.887-9.243,3.556-4.717,7.233-9.595,10.347-14.095.212-.307.236-.704.063-1.033-.173-.33-.514-.536-.886-.536h-1.77c-.3,0-.583.135-.773.366-1.246,1.521-2.95,2.318-3.988,2.318ZM518.541,58.102c0,9.605-26.945,36.349-32.834,37.073-.004-.055-.006-.122-.006-.203,0-2.992,2.646-9.235,6.912-16.303,3.917-6.649,9.025-13.311,13.676-17.83,3.144-3.145,7.107-5.258,9.863-5.258,1.765,0,2.39.659,2.39,2.521Z" fill="#fff2e3" stroke="#000" stroke-miterlimit="10"/>
      <path d="M612.415,98.142h18.639c.409,0,.777-.249.929-.629l1.553-3.883c.126-.316.083-.676-.116-.953-.188-.264-.491-.418-.813-.418-.017,0-5.53.287-5.53.287l3.8-17.984h26.549l-3.129,14.801c-.686,2.969-1.885,3.488-3.095,3.609l-3.036.353c-.35.04-.652.262-.797.583l-1.271,2.824c-.139.31-.112.668.072.953.185.285.5.457.84.457h19.345c.409,0,.777-.249.929-.629l1.553-3.883c.126-.316.083-.676-.116-.953-.188-.264-.492-.418-.813-.418-.018,0-5.531.287-5.531.287l7.919-37.551c.625-2.85,1.716-3.573,3.268-3.814l2.33-.353c.329-.05.611-.26.754-.561l1.341-2.824c.147-.31.125-.673-.058-.963s-.502-.466-.845-.466h-18.78c-.409,0-.777.249-.929.629l-1.553,3.883c-.126.316-.083.676.116.953.188.264.491.418.813.418.018,0,5.532-.287,5.532-.287l-3.66,17.42h-26.618l2.989-14.035c.625-2.85,1.715-3.573,3.268-3.814l2.33-.353c.329-.05.611-.26.754-.561l1.341-2.824c.147-.31.125-.673-.058-.963s-.502-.466-.845-.466h-18.78c-.409,0-.777.249-.929.629l-1.553,3.883c-.126.316-.083.676.116.953.188.264.491.418.813.418.017,0,5.53-.287,5.53-.287l-7.987,37.752c-.623,2.701-1.623,3.371-3.128,3.613l-2.33.353c-.336.051-.623.27-.763.579l-1.271,2.824c-.14.31-.112.668.072.953.185.285.5.457.84.457Z" fill="#fff2e3" stroke="#000" stroke-miterlimit="10"/>
      <path d="M736.247,98.142h18.639c.409,0,.777-.249.929-.629l1.553-3.883c.126-.316.083-.676-.116-.953-.188-.264-.492-.418-.813-.418-.018,0-5.53.287-5.53.287l3.799-17.984h26.55l-3.13,14.801c-.685,2.969-1.884,3.488-3.094,3.609l-3.036.353c-.35.04-.652.262-.797.583l-1.271,2.824c-.14.31-.112.668.072.953.185.285.5.457.84.457h19.345c.409,0,.777-.249.929-.629l1.553-3.883c.126-.316.083-.676-.116-.953-.188-.264-.491-.418-.813-.418-.017,0-5.531.287-5.531.287l7.92-37.551c.625-2.85,1.715-3.573,3.267-3.814l2.33-.353c.329-.05.611-.26.754-.561l1.341-2.824c.147-.31.125-.673-.058-.963-.183-.29-.502-.466-.845-.466h-18.78c-.409,0-.777.249-.929.629l-1.553,3.883c-.126.316-.083.676.115.953.188.264.492.418.813.418.017,0,5.532-.287,5.532-.287l-3.66,17.42h-26.618l2.989-14.035c.625-2.85,1.716-3.573,3.268-3.814l2.33-.353c.329-.05.611-.26.754-.561l1.341-2.824c.147-.31.125-.673-.058-.963s-.502-.466-.845-.466h-18.78c-.409,0-.777.249-.929.629l-1.553,3.883c-.126.316-.083.676.116.953.188.264.491.418.813.418.018,0,5.53-.287,5.53-.287l-7.987,37.752c-.624,2.701-1.623,3.371-3.129,3.613l-2.33.353c-.336.051-.623.27-.762.579l-1.271,2.824c-.139.31-.112.668.072.953s.5.457.84.457Z" fill="#fff2e3" stroke="#000" stroke-miterlimit="10"/>
      <path d="M969.015,98.849c17.189,0,31.712-15.008,31.712-32.771,0-12.034-9.031-20.769-21.475-20.769-18.257,0-32.418,17.616-32.418,32.771,0,12.229,9.121,20.77,22.181,20.77ZM976.993,51.191c8.398,0,13.615,5.975,13.615,15.592,0,12.692-6.801,26.182-19.404,26.182-8.967,0-14.321-5.828-14.321-15.591,0-10.701,7.162-26.183,20.11-26.183Z" fill="#fff2e3" stroke="#000" stroke-miterlimit="10"/>
      <path d="M850.133,95.651c4.863,2.211,9.781,3.197,15.947,3.197,10.167,0,21.051-7.211,21.051-17.945,0-7.056-5.8-10.073-12.265-12.784-6.378-2.658-10.893-4.821-10.893-8.467,0-3.458,3.591-8.461,10.084-8.461,7.291,0,9.745,2.483,10.941,11.069.069.494.491.862.99.862h1.836c.498,0,.919-.366.99-.858l1.977-13.838c.069-.481-.218-.941-.679-1.092-3.826-1.25-8.517-2.026-12.242-2.026-10.764,0-21.898,6.659-21.898,17.804,0,6.277,5.161,9.078,12.449,12.349,6.393,2.893,10.355,5.355,10.355,8.69,0,5.517-5.845,8.813-11.497,8.813-7.185,0-11.342-4.067-12.71-12.434-.079-.483-.497-.839-.987-.839h-1.765c-.518,0-.949.395-.996.91l-1.271,14.049c-.039.423.195.824.582,1Z" fill="#fff2e3" stroke="#000" stroke-miterlimit="10"/>
      <path d="M902.297,98.142h25.629c2.627,0,5.191.101,7.682,1.312.138.066.288.101.438.101.125,0,.25-.023.368-.07.261-.104.467-.312.566-.574l6.284-16.521c.117-.308.075-.652-.111-.923s-.495-.433-.823-.433h-1.765c-.341,0-.658.174-.842.461-4.259,6.65-9.51,11.118-13.066,11.118h-9.739l7.963-37.622c.535-2.498,1.655-3.564,3.989-3.804l3.671-.353c.35-.033.657-.248.808-.566l1.341-2.824c.147-.31.125-.673-.058-.963s-.502-.466-.845-.466h-20.898c-.409,0-.776.249-.928.629l-1.553,3.883c-.127.316-.083.676.115.953.188.264.492.418.813.418.017,0,5.528-.287,5.528-.287l-8.06,37.841c-.484,2.285-1.339,3.273-3.054,3.524l-2.331.353c-.335.051-.623.27-.762.579l-1.271,2.824c-.139.31-.112.668.072.953.185.285.5.457.84.457Z" fill="#fff2e3" stroke="#000" stroke-miterlimit="10"/>
      <path d="M798.428,92.969l-4.024.353c-.361.031-.676.256-.825.586l-1.271,2.824c-.139.31-.112.668.072.953.185.285.5.457.84.457h17.227c.409,0,.777-.249.929-.629l1.553-3.883c.126-.316.083-.677-.116-.954-.188-.263-.491-.417-.812-.417-.018,0-4.247.228-4.247.228l7.311-8.323h18.608l.061,6.061c0,1.085-.476,2.261-3.996,2.749l-2.824.353c-.346.043-.645.264-.788.582l-1.271,2.824c-.14.31-.112.668.072.953.185.285.5.457.84.457h19.628c.409,0,.776-.249.928-.629l1.553-3.883c.127-.317.083-.679-.118-.957-.188-.261-.491-.414-.81-.414-.021,0-4.806.292-4.806.292l-.69-45.552c-.008-.546-.454-.984-1-.984h-13.768c-.394,0-.75.23-.912.59l-.635,1.412c-.125.277-.117.597.023.868.139.271.395.463.693.522,5.27,1.054,6.66,3.324,7.165,5.51l-29.819,33.869c-.456.52-.855.992-1.217,1.418-1.693,1.999-2.289,2.638-3.555,2.765ZM819.857,78.633l13.553-15.441.172,15.441h-13.725Z" fill="#fff2e3" stroke="#000" stroke-miterlimit="10"/>
      <path d="M1090.393,44.845c-.184-.158-.416-.242-.653-.242-.087,0-.175.012-.262.035-4.25,1.151-6.798,1.377-9.764,1.377h-21.534c-3.231,0-5.646-.217-9.15-1.362-.101-.033-.206-.05-.311-.05-.159,0-.318.038-.462.113-.238.124-.417.339-.495.596l-4.589,15.109c-.092.304-.035.632.154.887.188.254.486.404.803.404h1.765c.341,0,.658-.174.842-.461l.2-.312c3.878-6.058,6.015-9.395,10.466-9.395h5.825l-8.074,37.974c-.506,2.341-1.475,3.361-3.341,3.522l-3.389.281c-.362.029-.68.254-.829.586l-1.271,2.824c-.139.31-.112.668.072.953.185.285.5.457.84.457h21.463c.409,0,.777-.249.929-.629l1.553-3.883c.126-.314.083-.673-.113-.949-.188-.266-.493-.422-.816-.422-.014,0-6.945.299-6.945.299l8.673-41.014h6.956c4.128,0,4.87,2.707,6.294,9.377.099.461.506.791.978.791h1.765c.507,0,.935-.38.993-.884l1.765-15.109c.039-.33-.089-.657-.34-.874Z" fill="#fff2e3" stroke="#000" stroke-miterlimit="10"/>
      <path d="M31.689,98.142h20.051c.409,0,.777-.249.929-.629l1.553-3.883c.126-.314.083-.673-.113-.949-.188-.266-.493-.422-.816-.422-.014,0-6.941.299-6.941.299l3.231-15.102h8.299c12.444,0,22.957-8.735,22.957-19.074,0-7.629-6.93-12.367-18.085-12.367h-20.475c-.409,0-.777.249-.929.629l-1.553,3.883c-.126.316-.083.676.116.953.188.264.492.418.813.418.018,0,5.528-.287,5.528-.287l-7.919,37.21c-.561,2.722-1.462,3.925-3.12,4.155l-2.4.353c-.337.05-.626.268-.766.579l-1.271,2.824c-.139.31-.112.668.072.953.185.285.5.457.84.457ZM61.837,51.544c5.567,0,9.025,2.972,9.025,7.756,0,6.242-5.286,12.979-13.826,12.979h-6.392l4.379-20.734h6.814Z" fill="#fff2e3" stroke="#000" stroke-miterlimit="10"/>
      <path d="M748.123,195.049c-2.717-4.099-6.282-7.252-10.623-9.404,7.329-2.087,13.118-5.547,17.236-10.308,4.657-5.385,7.019-12.059,7.019-19.836,0-6.746-1.838-12.551-5.464-17.253-3.63-4.707-8.315-7.792-13.926-9.169-5.466-1.339-13.822-2.019-24.836-2.019h-28.93c-.463,0-.865.317-.973.768l-3.303,13.805c-.071.298-.002.611.188.852s.479.381.785.381h10.08l-21.2,88.196h-9.036c-.465,0-.868.32-.974.772l-3.218,13.805c-.069.298,0,.61.19.85.189.238.478.378.783.378h36.163c10.618,0,18.719-.417,24.077-1.24,5.438-.834,10.459-2.601,14.925-5.252,4.506-2.675,8.331-6.715,11.367-12.008,3.039-5.296,4.579-10.948,4.579-16.801,0-6.042-1.651-11.599-4.909-16.517ZM731.711,220.464c-1.682,3.235-3.807,5.653-6.317,7.187-2.544,1.556-5.214,2.521-7.937,2.868-2.821.36-8.186.543-15.945.543h-8.126l9.166-38.822h5.338c7.447,0,12.772.335,15.826.995,2.873.62,5.37,2.356,7.423,5.16,2.073,2.833,3.125,6.552,3.125,11.054,0,4.051-.859,7.757-2.553,11.016ZM740.776,148.047c1.692,2.3,2.55,5.32,2.55,8.978,0,4.553-1.245,8.494-3.699,11.717-2.451,3.22-5.533,5.35-9.16,6.331-3.756,1.017-9.824,1.532-18.036,1.532h-5.95l8.11-33.739h5.865c6.604,0,11.315.306,14.002.907,2.554.573,4.621,1.972,6.317,4.274Z" fill="#fff2e3" stroke="#000" stroke-miterlimit="10"/>
      <path d="M844.828,196.547c-.19-.239-.478-.378-.783-.378h-13.914c-.465,0-.868.32-.974.773l-7.951,34.119h-36.759l21.199-88.196h11.577c.463,0,.865-.317.973-.768l3.303-13.805c.071-.298.002-.611-.188-.852s-.479-.381-.785-.381h-41.973c-.465,0-.868.32-.974.773l-3.218,13.805c-.069.297,0,.609.19.849.189.238.478.378.783.378h11.096l-21.2,88.196h-10.899c-.465,0-.869.32-.974.772l-3.218,13.805c-.069.298,0,.61.191.85.189.238.478.378.783.378h81.671c.465,0,.87-.321.974-.774l11.26-48.697c.069-.297-.002-.609-.191-.848Z" fill="#fff2e3" stroke="#000" stroke-miterlimit="10"/>
      <path d="M268.277,127.061h-14.228c-.469,0-.875.326-.977.784l-1.391,6.292c-6.418-5.934-14.587-8.939-24.311-8.939-10.479,0-19.207,3.012-25.941,8.95-6.771,5.971-10.205,13.919-10.205,23.623,0,6.791,1.738,12.846,5.166,17.997,3.391,5.096,9.481,10.629,18.108,16.449,7.982,5.303,13.395,9.621,16.087,12.834,2.599,3.104,3.917,6.806,3.917,11.004,0,4.819-1.908,8.796-5.833,12.155-3.916,3.353-8.854,5.053-14.679,5.053-8.302,0-15.397-3.177-21.098-9.442l2.338-10.081c.069-.297-.001-.609-.191-.848-.189-.238-.478-.378-.783-.378h-14.312c-.465,0-.868.32-.974.773l-7.538,32.353c-.069.297,0,.609.19.849.189.238.478.378.783.378h14.313c.466,0,.87-.322.975-.776l1.09-4.744c6.615,4.9,14.46,7.384,23.343,7.384,11.652,0,21.345-3.232,28.809-9.606,7.51-6.414,11.318-15.04,11.318-25.639,0-5.27-1.028-10.078-3.057-14.292-2.019-4.196-4.698-7.81-7.964-10.737-3.21-2.877-8.451-6.731-15.575-11.453-6.773-4.527-11.369-8.386-13.661-11.47-2.229-2.997-3.359-6.259-3.359-9.693,0-4.694,1.68-8.347,5.137-11.166,3.469-2.829,7.873-4.264,13.088-4.264,4.104,0,8.149,1.044,12.022,3.102,3.725,1.98,6.669,4.566,8.756,7.688l-2.019,8.561c-.07.297,0,.61.189.851.19.239.479.379.784.379h14.228c.465,0,.868-.32.974-.772l7.453-31.929c.069-.297,0-.61-.191-.849-.189-.239-.478-.379-.783-.379Z" fill="#fff2e3" stroke="#000" stroke-miterlimit="10"/>
      <path d="M667.377,156.093c0-5.561-1.13-10.479-3.359-14.617-2.24-4.158-5.398-7.425-9.387-9.709-3.942-2.26-7.807-3.627-11.485-4.063-3.584-.426-10.318-.643-20.017-.643h-34.329c-.465,0-.869.32-.974.773l-3.218,13.805c-.069.297,0,.609.191.849.189.238.478.378.783.378h10.079l-21.2,88.196h-9.036c-.465,0-.868.32-.974.772l-3.218,13.805c-.069.298,0,.61.19.85.189.238.478.378.783.378h38.078c.465,0,.869-.32.974-.773l3.218-13.804c.069-.298,0-.61-.191-.85-.189-.238-.478-.378-.783-.378h-9.826l9.58-39.922h15.401l12.359,54.946c.103.456.508.78.976.78h22.614c.462,0,.865-.317.973-.768l3.303-13.805c.071-.298.002-.611-.188-.852s-.479-.381-.785-.381h-11.998l-9.726-41.028c9.666-1.55,17.304-5.316,22.714-11.203,5.625-6.117,8.477-13.768,8.477-22.737ZM614.876,142.865h6.798c8.186,0,13.779.252,16.625.748,2.699.47,4.929,1.81,6.818,4.097,1.867,2.263,2.813,5.339,2.813,9.146,0,4.485-1.239,8.292-3.682,11.312-2.448,3.024-5.623,4.988-9.435,5.835-3.967.884-10.717,1.332-20.063,1.332h-7.717l7.842-32.47Z" fill="#fff2e3" stroke="#000" stroke-miterlimit="10"/>
      <path d="M160.432,231.062h-9.404l21.114-88.196h8.104c.465,0,.868-.32.974-.772l3.218-13.805c.069-.298,0-.61-.19-.85-.189-.238-.478-.378-.783-.378h-35.787c-.465,0-.868.32-.974.773l-3.218,13.805c-.069.297,0,.609.19.849.189.238.478.378.783.378h8.555l-21.2,88.196h-8.528c-.465,0-.869.32-.974.772l-3.218,13.805c-.069.298,0,.61.191.85.189.238.478.378.783.378h37.146c.465,0,.868-.32.974-.773l3.218-13.804c.069-.298,0-.61-.19-.85-.189-.238-.478-.378-.783-.378Z" fill="#fff2e3" stroke="#000" stroke-miterlimit="10"/>
      <path d="M437.631,231.439c-.189-.238-.478-.378-.783-.378h-10.515l20.385-88.196h9.791c.465,0,.868-.32.974-.772l3.218-13.805c.069-.298,0-.61-.19-.85-.189-.238-.478-.378-.783-.378h-36.265c-.352,0-.678.186-.859.487l-47.104,78.979-10.458-78.598c-.066-.497-.49-.868-.991-.868h-35.271c-.465,0-.869.32-.974.773l-3.218,13.805c-.069.297,0,.609.191.849.189.238.478.378.783.378h9.487l-21.2,88.196h-9.205c-.465,0-.868.32-.974.772l-3.218,13.805c-.069.298,0,.61.19.85.189.238.478.378.783.378h34.438c.46,0,.861-.314.971-.762l3.388-13.805c.073-.298.005-.613-.184-.855-.19-.241-.48-.383-.787-.383h-9.144l20.436-83.828,13.514,99.359c.067.496.49.865.991.865h3.58c.352,0,.677-.185.858-.485l59.501-99.269-18.688,83.357h-10.209c-.465,0-.868.32-.974.772l-3.218,13.805c-.069.298,0,.61.19.85.189.238.478.378.783.378h36.758c.465,0,.869-.32.974-.773l3.218-13.804c.069-.298,0-.61-.191-.85Z" fill="#fff2e3" stroke="#000" stroke-miterlimit="10"/>
      <path d="M1039.898,62.265l1.977-13.838c.068-.481-.218-.941-.68-1.092-3.827-1.25-8.518-2.026-12.243-2.026-10.764,0-21.898,6.659-21.898,17.804,0,6.277,5.161,9.078,12.449,12.349,6.393,2.893,10.355,5.355,10.355,8.69,0,5.517-5.845,8.813-11.497,8.813-7.185,0-11.342-4.067-12.71-12.434-.079-.483-.497-.839-.987-.839h-1.765c-.518,0-.949.395-.996.91l-1.271,14.049c-.039.423.195.824.582,1,4.863,2.211,9.781,3.197,15.946,3.197,10.167,0,21.051-7.211,21.051-17.945,0-7.056-5.8-10.073-12.265-12.784-6.378-2.658-10.893-4.821-10.893-8.467,0-3.458,3.591-8.461,10.084-8.461,7.291,0,9.745,2.483,10.941,11.069.068.494.491.862.99.862h1.836c.498,0,.919-.366.99-.858Z" fill="#fff2e3" stroke="#000" stroke-miterlimit="10"/>
      <path d="M303.339,102.561v1c17.585,0,34.338-7.226,47.172-20.345,11.573-11.83,18.482-27.147,18.482-40.974,0-7.724-2.002-14.782-5.798-20.476,6.77-6.511,12.939-10.132,17.462-10.243.753,2.104,2.683,3.656,4.688,3.656,1.786,0,3.033-1.247,3.033-3.032,0-1.356-.727-4.506-7.45-4.524-.019,0-.037-.001-.056-.001-5.612,0-13.21,3.348-21.461,9.443-6.6-6.358-16.077-9.713-27.475-9.713h-.823c-1.97-4.486-5.53-6.852-10.335-6.852-.502,0-1.023.026-1.565.081-8.212.958-15.204,6.042-19.722,14.327-21.656,10.231-34.573,27.776-34.573,46.989,0,9.129,6.208,15.504,15.098,15.504,9.085,0,18.383-4.119,26.932-11.923.779.498,1.584.893,2.314,1.25l.537.265c.144.071.296.105.447.105.354,0,.697-.189.878-.521l.813-1.49c.263-.481.088-1.086-.392-1.353-.397-.221-.766-.413-1.106-.591-.233-.121-.449-.234-.647-.343,12.869-13.336,22.467-33.729,22.467-47.942,0-1.2-.073-2.333-.214-3.34h1.247c9.593,0,17.063,3.108,21.675,9.004-7.228,6.059-15.053,14.382-23.272,24.757-20.569,26.018-37.147,43.61-56.1,50.823-7.265-1.452-14.123-2.811-19.841-2.811-5.046,0-8.998,2.464-8.998,5.608,0,2.918,3.212,4.66,8.591,4.66,7.105,0,13.512-.725,19.048-2.154,9.582,1.094,19.699,2.154,28.943,2.154l.002-1ZM358.444,26.485c1.607,3.948,2.452,8.565,2.45,13.451,0,27.055-25.616,59.73-57.426,59.73-6.044,0-12.191-.771-17.736-1.67,24.025-9.712,41.603-31.323,65.158-62.598,2.755-3.542,5.14-6.464,7.554-8.914ZM273.559,64.879c0-14.982,8.03-29.428,22.134-39.995-1.005,4.2-1.496,8.217-1.496,12.205,0,10.961,3.414,20.275,9.404,25.782-7.7,7.057-15.63,10.633-23.586,10.633-5.335,0-6.456-4.69-6.456-8.625ZM306.382,60.271c-5.176-4.516-8.015-12.028-8.015-21.282,0-6.349,1.458-12.875,4.11-18.414,7.896-4.789,16.938-7.903,25.6-8.828.083.743.147,1.531.147,2.433,0,11.485-8.332,32.2-21.841,46.092ZM321.861,4.813c2.274,0,3.893.872,4.916,2.656-6.164.556-12.344,1.859-18.131,3.815,3.511-3.691,7.658-5.89,12.144-6.412.37-.04.727-.06,1.071-.06Z" fill="#fff2e3" stroke="#000" stroke-miterlimit="10"/>
      <path d="M102.926,98.849c17.189,0,31.712-15.008,31.712-32.771,0-12.034-9.031-20.769-21.475-20.769-18.257,0-32.418,17.616-32.418,32.771,0,12.229,9.121,20.77,22.181,20.77ZM110.904,51.191c8.398,0,13.615,5.975,13.615,15.592,0,12.692-6.801,26.182-19.404,26.182-8.967,0-14.321-5.828-14.321-15.591,0-10.701,7.162-26.183,20.11-26.183Z" fill="#fff2e3" stroke="#000" stroke-miterlimit="10"/>
      <path d="M1037.761,127.061h-14.228c-.469,0-.875.326-.977.784l-1.391,6.292c-6.418-5.934-14.587-8.939-24.311-8.939-10.479,0-19.207,3.012-25.942,8.95-6.771,5.971-10.205,13.919-10.205,23.623,0,6.791,1.738,12.846,5.166,17.997,3.391,5.096,9.481,10.629,18.108,16.449,7.982,5.303,13.395,9.62,16.087,12.834,2.599,3.104,3.917,6.806,3.917,11.004,0,4.819-1.908,8.796-5.833,12.155-3.916,3.353-8.854,5.053-14.679,5.053-8.302,0-15.397-3.177-21.098-9.442l2.338-10.081c.069-.297-.001-.609-.191-.848-.19-.238-.478-.378-.783-.378h-14.312c-.465,0-.868.32-.974.773l-7.538,32.353c-.069.297,0,.609.19.849.189.238.478.378.783.378h14.313c.466,0,.87-.322.975-.776l1.09-4.744c6.615,4.9,14.46,7.384,23.343,7.384,11.652,0,21.345-3.232,28.809-9.606,7.51-6.414,11.318-15.04,11.318-25.639,0-5.27-1.028-10.078-3.057-14.292-2.019-4.196-4.698-7.809-7.964-10.737-3.21-2.877-8.451-6.731-15.575-11.453-6.773-4.527-11.369-8.386-13.661-11.47-2.229-2.997-3.359-6.258-3.359-9.693,0-4.694,1.68-8.347,5.137-11.166,3.469-2.829,7.873-4.264,13.088-4.264,4.104,0,8.149,1.044,12.022,3.102,3.726,1.98,6.669,4.566,8.756,7.688l-2.019,8.561c-.07.297,0,.61.189.851.19.239.479.379.784.379h14.228c.465,0,.868-.32.974-.772l7.453-31.929c.069-.297,0-.61-.191-.849-.189-.239-.478-.379-.783-.379Z" fill="#fff2e3" stroke="#000" stroke-miterlimit="10"/>
      <path d="M109.533,231.062h-10.08l21.199-88.196h7.512c.465,0,.869-.32.974-.772l3.219-13.805c.069-.298,0-.61-.191-.85-.189-.238-.478-.378-.783-.378h-36.891c-.465,0-.868.32-.974.773l-3.218,13.805c-.069.297,0,.609.19.849.189.238.478.378.783.378h10.164l-7.988,33.231h-46.843l7.987-33.231h9.883c.463,0,.865-.317.973-.768l3.303-13.805c.071-.298.002-.611-.188-.852-.19-.24-.479-.381-.785-.381H28.517c-.465,0-.868.32-.974.773l-3.218,13.805c-.069.297,0,.609.19.849.189.238.478.378.783.378h10.08l-21.2,88.196H4.719c-.465,0-.869.32-.974.772l-3.218,13.805c-.069.298,0,.61.191.85.189.238.478.378.783.378h38.417c.463,0,.865-.317.973-.768l3.303-13.805c.071-.298.002-.611-.188-.852-.19-.24-.479-.381-.785-.381h-9.826l9.414-39.16h46.842l-9.413,39.16h-9.883c-.465,0-.869.32-.974.772l-3.218,13.805c-.069.298,0,.61.191.85.189.238.478.378.783.378h39.179c.465,0,.869-.32.974-.773l3.218-13.804c.069-.298,0-.61-.19-.85-.189-.238-.478-.378-.783-.378Z" fill="#fff2e3" stroke="#000" stroke-miterlimit="10"/>
      <path d="M161.169,98.849c17.19,0,31.712-15.008,31.712-32.771,0-12.034-9.031-20.769-21.475-20.769-18.257,0-32.418,17.616-32.418,32.771,0,12.229,9.121,20.77,22.181,20.77ZM169.147,51.191c8.398,0,13.615,5.975,13.615,15.592,0,12.692-6.801,26.182-19.404,26.182-8.967,0-14.321-5.828-14.321-15.591,0-10.701,7.162-26.183,20.11-26.183Z" fill="#fff2e3" stroke="#000" stroke-miterlimit="10"/>
      <path d="M937.506,208.533h-13.883c-.461,0-.862.314-.971.763l-5.325,21.766h-41.68l9.189-38.229h35.731c.469,0,.875-.326.977-.784l3.049-13.805c.065-.296-.007-.605-.197-.842-.19-.236-.477-.374-.78-.374h-34.981l8.21-34.163h40.327l-4.853,20.45c-.071.297-.001.61.188.851.19.24.479.38.785.38h13.983c.463,0,.866-.318.973-.769l8.423-35.485c.07-.298,0-.611-.188-.852s-.479-.38-.785-.38h-84.76c-.465,0-.868.32-.974.773l-3.218,13.805c-.069.297,0,.609.19.849.189.238.478.378.783.378h9.911l-21.2,88.196h-9.968c-.465,0-.868.32-.974.772l-3.218,13.805c-.069.298,0,.61.19.85.189.238.478.378.783.378h85.644c.463,0,.866-.318.973-.77l8.617-36.333c.07-.297,0-.61-.189-.851-.189-.24-.479-.38-.784-.38Z" fill="#fff2e3" stroke="#000" stroke-miterlimit="10"/>
      <path d="M559.381,231.439c-.189-.238-.478-.378-.783-.378h-10.033l-10.167-88.196h11.074c.465,0,.868-.32.974-.772l3.218-13.805c.069-.298,0-.61-.19-.85-.189-.238-.478-.378-.783-.378h-57.619c-.465,0-.869.32-.974.773l-3.218,13.805c-.069.297,0,.609.19.849.189.238.478.378.783.378h11.332l-49.679,88.196h-10.256c-.465,0-.869.32-.974.772l-3.218,13.805c-.069.298,0,.61.191.85.189.238.478.378.783.378h41.902c.465,0,.869-.32.974-.773l3.218-13.804c.069-.298,0-.61-.191-.85-.189-.238-.478-.378-.783-.378h-11.129l13.448-25.44h39.978l2.333,25.44h-12.793c-.463,0-.865.317-.973.768l-3.303,13.805c-.071.298-.002.611.188.852s.479.381.785.381h41.696c.465,0,.869-.32.974-.773l3.218-13.804c.069-.298,0-.61-.191-.85ZM496.045,189.816l24.288-46.951h1.358l4.307,46.951h-29.953Z" fill="#fff2e3" stroke="#000" stroke-miterlimit="10"/>
    </g>
  </g>
</svg>